<svg xmlns="http://www.w3.org/2000/svg" xmlns:xlink="http://www.w3.org/1999/xlink" width="60" zoomAndPan="magnify" viewBox="0 0 45 44.999999" height="60" preserveAspectRatio="xMidYMid meet" version="1.0"><defs><clipPath id="9d70f1a53f"><path d="M 2.347656 11 L 17 11 L 17 32 L 2.347656 32 Z M 2.347656 11 " clip-rule="nonzero"/></clipPath><clipPath id="ba73da9003"><path d="M 28 11 L 42.847656 11 L 42.847656 32 L 28 32 Z M 28 11 " clip-rule="nonzero"/></clipPath><clipPath id="adfea1f942"><path d="M 15 5.652344 L 30 5.652344 L 30 37 L 15 37 Z M 15 5.652344 " clip-rule="nonzero"/></clipPath></defs><rect x="-4.5" width="54" fill="#ffffff" y="-4.5" height="53.999999" fill-opacity="1"/><rect x="-4.5" width="54" fill="#191919" y="-4.5" height="53.999999" fill-opacity="1"/><g clip-path="url(#9d70f1a53f)"><path fill="#03fa6e" d="M 15.0625 31.164062 C 14.839844 31.164062 14.621094 31.089844 14.445312 30.949219 L 3.171875 22.082031 C 2.929688 21.890625 2.792969 21.605469 2.792969 21.296875 C 2.792969 20.992188 2.929688 20.707031 3.171875 20.511719 L 14.445312 11.648438 C 14.621094 11.507812 14.839844 11.433594 15.0625 11.433594 C 15.367188 11.433594 15.65625 11.570312 15.84375 11.8125 C 16.011719 12.023438 16.085938 12.285156 16.050781 12.546875 C 16.023438 12.8125 15.886719 13.050781 15.679688 13.214844 L 5.40625 21.296875 L 15.679688 29.382812 C 15.886719 29.546875 16.023438 29.785156 16.050781 30.046875 C 16.085938 30.3125 16.011719 30.574219 15.84375 30.785156 C 15.65625 31.027344 15.367188 31.164062 15.0625 31.164062 " fill-opacity="1" fill-rule="nonzero"/><path fill="#2a446b" d="M 15.0625 11.007812 C 14.742188 11.007812 14.433594 11.113281 14.183594 11.3125 L 2.910156 20.179688 C 2.5625 20.453125 2.367188 20.859375 2.367188 21.296875 C 2.367188 21.738281 2.566406 22.144531 2.910156 22.417969 L 14.183594 31.285156 C 14.429688 31.480469 14.742188 31.589844 15.0625 31.589844 C 15.5 31.589844 15.910156 31.390625 16.179688 31.046875 C 16.417969 30.75 16.519531 30.375 16.476562 30 C 16.429688 29.621094 16.242188 29.28125 15.941406 29.046875 L 6.09375 21.296875 L 15.941406 13.550781 C 16.242188 13.3125 16.429688 12.976562 16.476562 12.597656 C 16.519531 12.222656 16.417969 11.847656 16.179688 11.550781 C 15.910156 11.203125 15.5 11.007812 15.0625 11.007812 Z M 15.0625 11.859375 C 15.230469 11.859375 15.398438 11.933594 15.511719 12.074219 C 15.710938 12.324219 15.664062 12.6875 15.417969 12.882812 L 4.71875 21.296875 L 15.417969 29.714844 C 15.664062 29.910156 15.710938 30.273438 15.511719 30.519531 C 15.398438 30.664062 15.230469 30.738281 15.0625 30.738281 C 14.9375 30.738281 14.8125 30.699219 14.707031 30.617188 L 3.433594 21.75 C 3.296875 21.640625 3.214844 21.472656 3.214844 21.296875 C 3.214844 21.121094 3.296875 20.957031 3.433594 20.847656 L 14.707031 11.980469 C 14.8125 11.898438 14.9375 11.859375 15.0625 11.859375 " fill-opacity="1" fill-rule="nonzero"/></g><g clip-path="url(#ba73da9003)"><path fill="#03fa6e" d="M 29.933594 31.164062 C 29.625 31.164062 29.339844 31.027344 29.148438 30.785156 C 28.808594 30.351562 28.882812 29.722656 29.316406 29.382812 L 39.589844 21.296875 L 29.316406 13.214844 C 28.882812 12.875 28.808594 12.246094 29.148438 11.8125 C 29.339844 11.570312 29.625 11.433594 29.933594 11.433594 C 30.15625 11.433594 30.375 11.507812 30.550781 11.648438 L 41.824219 20.511719 C 42.066406 20.707031 42.203125 20.992188 42.203125 21.296875 C 42.203125 21.605469 42.066406 21.890625 41.820312 22.082031 L 30.550781 30.949219 C 30.375 31.089844 30.15625 31.164062 29.933594 31.164062 " fill-opacity="1" fill-rule="nonzero"/><path fill="#2a446b" d="M 29.933594 11.007812 C 29.496094 11.007812 29.085938 11.203125 28.816406 11.550781 C 28.328125 12.167969 28.4375 13.0625 29.054688 13.550781 L 38.902344 21.296875 L 29.054688 29.046875 C 28.4375 29.53125 28.328125 30.429688 28.816406 31.046875 C 29.085938 31.390625 29.496094 31.589844 29.933594 31.589844 C 30.25 31.589844 30.5625 31.480469 30.8125 31.285156 L 42.085938 22.417969 C 42.429688 22.144531 42.628906 21.738281 42.628906 21.296875 C 42.628906 20.859375 42.429688 20.453125 42.085938 20.179688 L 30.816406 11.3125 C 30.566406 11.113281 30.25 11.007812 29.933594 11.007812 Z M 29.933594 11.859375 C 30.058594 11.859375 30.183594 11.898438 30.289062 11.980469 L 41.558594 20.847656 C 41.699219 20.957031 41.777344 21.121094 41.777344 21.296875 C 41.777344 21.472656 41.699219 21.640625 41.558594 21.75 L 30.289062 30.617188 C 30.183594 30.699219 30.058594 30.738281 29.933594 30.738281 C 29.765625 30.738281 29.59375 30.664062 29.484375 30.519531 C 29.289062 30.273438 29.332031 29.910156 29.578125 29.714844 L 40.277344 21.296875 L 29.578125 12.882812 C 29.332031 12.6875 29.289062 12.324219 29.484375 12.074219 C 29.59375 11.933594 29.765625 11.859375 29.933594 11.859375 " fill-opacity="1" fill-rule="nonzero"/></g><path fill="#03fa6e" d="M 16.894531 36.515625 C 16.773438 36.515625 16.652344 36.492188 16.535156 36.449219 C 16.289062 36.351562 16.089844 36.164062 15.984375 35.921875 C 15.875 35.675781 15.867188 35.40625 15.964844 35.15625 L 26.972656 6.71875 C 27.121094 6.335938 27.496094 6.082031 27.902344 6.082031 C 28.027344 6.082031 28.148438 6.105469 28.265625 6.148438 C 28.777344 6.347656 29.035156 6.929688 28.835938 7.441406 L 17.828125 35.878906 C 17.679688 36.257812 17.304688 36.515625 16.894531 36.515625 " fill-opacity="1" fill-rule="nonzero"/><g clip-path="url(#adfea1f942)"><path fill="#2a446b" d="M 27.902344 5.65625 C 27.320312 5.65625 26.785156 6.023438 26.578125 6.566406 L 15.566406 35.003906 C 15.433594 35.359375 15.441406 35.746094 15.59375 36.09375 C 15.75 36.441406 16.027344 36.707031 16.382812 36.84375 C 16.546875 36.910156 16.71875 36.941406 16.894531 36.941406 C 17.480469 36.941406 18.011719 36.574219 18.222656 36.03125 L 29.230469 7.59375 C 29.515625 6.863281 29.148438 6.035156 28.417969 5.753906 C 28.253906 5.6875 28.082031 5.65625 27.902344 5.65625 Z M 27.902344 6.507812 C 27.972656 6.507812 28.042969 6.519531 28.109375 6.546875 C 28.40625 6.660156 28.554688 6.992188 28.4375 7.285156 L 17.429688 35.722656 C 17.34375 35.953125 17.125 36.089844 16.894531 36.089844 C 16.828125 36.089844 16.757812 36.078125 16.6875 36.050781 C 16.394531 35.9375 16.246094 35.605469 16.363281 35.3125 L 27.371094 6.875 C 27.457031 6.644531 27.675781 6.507812 27.902344 6.507812 " fill-opacity="1" fill-rule="nonzero"/></g></svg>