<svg xmlns="http://www.w3.org/2000/svg" xmlns:xlink="http://www.w3.org/1999/xlink" width="98" zoomAndPan="magnify" viewBox="0 0 73.5 44.999999" height="60" preserveAspectRatio="xMidYMid meet" version="1.0"><defs><g/><clipPath id="79570a12f5"><path d="M 2 15 L 18 15 L 18 40 L 2 40 Z M 2 15 " clip-rule="nonzero"/></clipPath><clipPath id="dcbeb55c93"><path d="M 12.195312 42.492188 L -2.351562 27.945312 L 13.710938 11.882812 L 28.257812 26.429688 Z M 12.195312 42.492188 " clip-rule="nonzero"/></clipPath><clipPath id="bb6be543f5"><path d="M 12.195312 42.492188 L -2.351562 27.945312 L 13.710938 11.882812 L 28.257812 26.429688 Z M 12.195312 42.492188 " clip-rule="nonzero"/></clipPath><clipPath id="803cbaab9f"><path d="M 9.179688 22.488281 C 8.636719 23.03125 8.179688 23.640625 7.820312 24.320312 C 7.457031 25 7.199219 25.714844 7.050781 26.46875 C 6.898438 27.222656 6.863281 27.984375 6.9375 28.75 C 7.011719 29.515625 7.199219 30.253906 7.492188 30.964844 C 7.785156 31.675781 8.179688 32.328125 8.664062 32.921875 C 9.152344 33.515625 9.71875 34.027344 10.355469 34.453125 C 10.996094 34.882812 11.683594 35.207031 12.421875 35.429688 C 13.15625 35.652344 13.910156 35.765625 14.679688 35.765625 L 14.679688 35.203125 C 14.203125 35.203125 13.734375 35.15625 13.269531 35.0625 C 12.804688 34.96875 12.355469 34.832031 11.917969 34.652344 C 11.480469 34.46875 11.0625 34.246094 10.671875 33.984375 C 10.277344 33.722656 9.910156 33.421875 9.578125 33.085938 C 9.242188 32.753906 8.941406 32.386719 8.679688 31.992188 C 8.417969 31.601562 8.195312 31.183594 8.011719 30.746094 C 7.832031 30.308594 7.695312 29.855469 7.601562 29.390625 C 7.511719 28.929688 7.464844 28.457031 7.464844 27.984375 C 7.464844 27.511719 7.511719 27.042969 7.601562 26.578125 C 7.695312 26.113281 7.832031 25.660156 8.015625 25.222656 C 8.195312 24.785156 8.417969 24.371094 8.679688 23.976562 C 8.945312 23.582031 9.242188 23.21875 9.578125 22.882812 C 9.914062 22.546875 10.277344 22.25 10.671875 21.984375 C 11.066406 21.722656 11.480469 21.5 11.917969 21.320312 C 12.355469 21.136719 12.808594 21 13.273438 20.910156 C 13.738281 20.816406 14.207031 20.769531 14.679688 20.769531 L 17.863281 20.769531 L 17.863281 20.207031 L 14.679688 20.210938 C 13.648438 20.207031 12.65625 20.402344 11.703125 20.796875 C 10.746094 21.191406 9.90625 21.753906 9.179688 22.488281 Z M 11.175781 24.484375 C 10.828125 24.828125 10.539062 25.21875 10.308594 25.652344 C 10.078125 26.082031 9.914062 26.539062 9.820312 27.019531 C 9.722656 27.5 9.699219 27.984375 9.746094 28.472656 C 9.796875 28.960938 9.914062 29.429688 10.101562 29.882812 C 10.289062 30.335938 10.539062 30.753906 10.847656 31.128906 C 11.160156 31.507812 11.519531 31.835938 11.925781 32.105469 C 12.332031 32.378906 12.769531 32.585938 13.238281 32.730469 C 13.707031 32.871094 14.1875 32.941406 14.679688 32.941406 L 14.679688 32.378906 C 14.390625 32.378906 14.105469 32.351562 13.820312 32.292969 C 13.539062 32.238281 13.265625 32.15625 12.996094 32.042969 C 12.730469 31.933594 12.476562 31.800781 12.238281 31.640625 C 11.996094 31.480469 11.777344 31.296875 11.570312 31.09375 C 11.367188 30.890625 11.1875 30.667969 11.027344 30.425781 C 10.867188 30.1875 10.730469 29.933594 10.621094 29.667969 C 10.507812 29.402344 10.425781 29.125 10.371094 28.84375 C 10.3125 28.5625 10.285156 28.273438 10.285156 27.988281 C 10.285156 27.699219 10.3125 27.414062 10.371094 27.128906 C 10.425781 26.847656 10.507812 26.574219 10.621094 26.304688 C 10.730469 26.039062 10.867188 25.785156 11.027344 25.546875 C 11.1875 25.308594 11.367188 25.085938 11.574219 24.882812 C 11.777344 24.675781 12 24.496094 12.238281 24.335938 C 12.476562 24.175781 12.730469 24.039062 12.996094 23.929688 C 13.265625 23.820312 13.539062 23.734375 13.820312 23.679688 C 14.105469 23.625 14.390625 23.59375 14.679688 23.59375 L 17.867188 23.59375 L 17.867188 23.03125 L 14.679688 23.03125 C 14.019531 23.03125 13.386719 23.15625 12.78125 23.40625 C 12.171875 23.660156 11.636719 24.015625 11.175781 24.484375 Z M 10.175781 23.484375 C 9.730469 23.929688 9.359375 24.429688 9.0625 24.984375 C 8.765625 25.539062 8.558594 26.125 8.433594 26.742188 C 8.3125 27.359375 8.28125 27.980469 8.34375 28.609375 C 8.40625 29.234375 8.554688 29.835938 8.796875 30.417969 C 9.039062 31 9.355469 31.535156 9.757812 32.019531 C 10.15625 32.507812 10.617188 32.925781 11.140625 33.277344 C 11.664062 33.625 12.226562 33.890625 12.828125 34.074219 C 13.429688 34.257812 14.042969 34.347656 14.675781 34.351562 L 14.679688 33.789062 C 14.304688 33.78125 13.933594 33.734375 13.566406 33.65625 C 13.199219 33.574219 12.84375 33.457031 12.5 33.308594 C 12.15625 33.15625 11.832031 32.976562 11.523438 32.761719 C 11.214844 32.550781 10.929688 32.308594 10.667969 32.039062 C 10.40625 31.773438 10.171875 31.480469 9.964844 31.167969 C 9.761719 30.851562 9.585938 30.523438 9.445312 30.175781 C 9.304688 29.828125 9.199219 29.46875 9.125 29.101562 C 9.054688 28.734375 9.015625 28.363281 9.015625 27.988281 C 9.015625 27.613281 9.054688 27.238281 9.125 26.871094 C 9.199219 26.503906 9.304688 26.144531 9.445312 25.796875 C 9.585938 25.453125 9.761719 25.121094 9.964844 24.808594 C 10.171875 24.492188 10.40625 24.203125 10.667969 23.933594 C 10.929688 23.664062 11.214844 23.425781 11.523438 23.210938 C 11.832031 22.996094 12.15625 22.816406 12.5 22.667969 C 12.847656 22.515625 13.199219 22.402344 13.566406 22.320312 C 13.933594 22.238281 14.304688 22.195312 14.679688 22.183594 L 17.863281 22.183594 L 17.863281 21.621094 L 14.679688 21.621094 C 13.832031 21.617188 13.019531 21.777344 12.242188 22.101562 C 11.460938 22.425781 10.773438 22.886719 10.175781 23.484375 Z M 7.179688 20.488281 C 6.6875 20.980469 6.25 21.515625 5.863281 22.097656 C 5.476562 22.675781 5.148438 23.285156 4.882812 23.929688 C 4.617188 24.574219 4.417969 25.234375 4.28125 25.917969 C 4.144531 26.601562 4.078125 27.289062 4.078125 27.984375 C 4.078125 28.683594 4.148438 29.371094 4.28125 30.054688 C 4.417969 30.738281 4.621094 31.398438 4.886719 32.042969 C 5.152344 32.6875 5.480469 33.296875 5.867188 33.875 C 6.253906 34.453125 6.691406 34.988281 7.183594 35.480469 C 8.175781 36.480469 9.320312 37.246094 10.621094 37.785156 C 11.917969 38.324219 13.273438 38.589844 14.679688 38.585938 L 14.675781 38.027344 C 14.015625 38.027344 13.363281 37.960938 12.71875 37.832031 C 12.070312 37.703125 11.445312 37.515625 10.835938 37.261719 C 10.226562 37.011719 9.648438 36.699219 9.101562 36.335938 C 8.550781 35.96875 8.046875 35.550781 7.578125 35.085938 C 7.113281 34.621094 6.699219 34.113281 6.332031 33.566406 C 5.964844 33.015625 5.65625 32.4375 5.402344 31.832031 C 5.152344 31.222656 4.960938 30.59375 4.832031 29.949219 C 4.703125 29.300781 4.640625 28.648438 4.640625 27.988281 C 4.640625 27.332031 4.703125 26.679688 4.832031 26.03125 C 4.960938 25.386719 5.152344 24.757812 5.402344 24.148438 C 5.65625 23.539062 5.964844 22.960938 6.332031 22.414062 C 6.699219 21.867188 7.113281 21.359375 7.578125 20.890625 C 8.046875 20.425781 8.550781 20.011719 9.101562 19.644531 C 9.648438 19.277344 10.226562 18.96875 10.835938 18.714844 C 11.445312 18.464844 12.070312 18.273438 12.71875 18.144531 C 13.363281 18.015625 14.019531 17.953125 14.675781 17.953125 L 17.859375 17.949219 L 17.859375 17.386719 L 14.679688 17.386719 C 13.273438 17.382812 11.917969 17.648438 10.621094 18.1875 C 9.320312 18.726562 8.175781 19.496094 7.183594 20.492188 Z M 12.171875 25.480469 C 11.921875 25.726562 11.714844 26.003906 11.550781 26.3125 C 11.386719 26.625 11.269531 26.949219 11.199219 27.292969 C 11.132812 27.636719 11.117188 27.984375 11.148438 28.332031 C 11.183594 28.679688 11.269531 29.015625 11.402344 29.339844 C 11.535156 29.664062 11.714844 29.960938 11.9375 30.234375 C 12.160156 30.503906 12.417969 30.738281 12.707031 30.933594 C 13 31.125 13.3125 31.273438 13.648438 31.375 C 13.984375 31.476562 14.324219 31.527344 14.675781 31.53125 L 14.675781 30.964844 C 14.28125 30.964844 13.902344 30.890625 13.535156 30.738281 C 13.171875 30.585938 12.847656 30.371094 12.570312 30.09375 C 12.289062 29.8125 12.074219 29.492188 11.921875 29.125 C 11.773438 28.761719 11.695312 28.378906 11.695312 27.984375 C 11.695312 27.589844 11.773438 27.210938 11.921875 26.84375 C 12.074219 26.480469 12.289062 26.15625 12.570312 25.878906 C 12.847656 25.597656 13.171875 25.382812 13.535156 25.230469 C 13.902344 25.082031 14.28125 25.003906 14.675781 25.003906 L 17.867188 25.007812 L 17.863281 24.445312 L 14.675781 24.445312 C 13.699219 24.441406 12.863281 24.789062 12.171875 25.480469 Z M 8.179688 21.488281 C 7.535156 22.128906 7 22.851562 6.570312 23.652344 C 6.144531 24.457031 5.839844 25.300781 5.664062 26.195312 C 5.484375 27.085938 5.441406 27.984375 5.53125 28.886719 C 5.617188 29.792969 5.835938 30.664062 6.183594 31.503906 C 6.53125 32.34375 6.996094 33.117188 7.570312 33.816406 C 8.148438 34.519531 8.816406 35.125 9.570312 35.628906 C 10.328125 36.132812 11.140625 36.519531 12.011719 36.78125 C 12.878906 37.046875 13.769531 37.175781 14.679688 37.175781 L 14.679688 36.613281 C 14.113281 36.609375 13.558594 36.546875 13.007812 36.433594 C 12.453125 36.320312 11.917969 36.152344 11.402344 35.933594 C 10.882812 35.714844 10.390625 35.449219 9.921875 35.132812 C 9.457031 34.816406 9.023438 34.460938 8.628906 34.058594 C 8.230469 33.660156 7.878906 33.222656 7.566406 32.753906 C 7.257812 32.285156 6.992188 31.789062 6.777344 31.269531 C 6.566406 30.75 6.402344 30.210938 6.292969 29.660156 C 6.183594 29.109375 6.128906 28.550781 6.128906 27.988281 C 6.128906 27.421875 6.183594 26.867188 6.292969 26.3125 C 6.402344 25.761719 6.566406 25.222656 6.777344 24.703125 C 6.992188 24.183594 7.257812 23.6875 7.566406 23.21875 C 7.878906 22.75 8.234375 22.316406 8.628906 21.914062 C 9.027344 21.515625 9.457031 21.15625 9.921875 20.839844 C 10.390625 20.527344 10.882812 20.257812 11.402344 20.039062 C 11.921875 19.820312 12.457031 19.65625 13.007812 19.539062 C 13.558594 19.425781 14.117188 19.367188 14.679688 19.363281 L 17.859375 19.363281 L 17.859375 18.796875 L 14.679688 18.796875 C 13.460938 18.792969 12.285156 19.027344 11.160156 19.492188 C 10.035156 19.960938 9.039062 20.625 8.179688 21.488281 Z M 2.667969 27.988281 C 2.667969 28.777344 2.742188 29.558594 2.898438 30.332031 C 3.050781 31.105469 3.277344 31.855469 3.582031 32.582031 C 3.882812 33.3125 4.253906 34.003906 4.691406 34.660156 C 5.128906 35.316406 5.628906 35.921875 6.183594 36.480469 C 6.742188 37.039062 7.347656 37.535156 8.003906 37.976562 C 8.660156 38.414062 9.351562 38.78125 10.082031 39.085938 C 10.8125 39.386719 11.5625 39.613281 12.335938 39.769531 C 13.109375 39.921875 13.890625 40 14.679688 40 L 14.679688 39.433594 C 13.925781 39.433594 13.183594 39.363281 12.445312 39.214844 C 11.707031 39.070312 10.992188 38.851562 10.296875 38.5625 C 9.601562 38.277344 8.941406 37.921875 8.316406 37.507812 C 7.691406 37.089844 7.113281 36.613281 6.582031 36.082031 C 6.050781 35.550781 5.578125 34.972656 5.160156 34.347656 C 4.742188 33.722656 4.390625 33.0625 4.101562 32.367188 C 3.8125 31.675781 3.597656 30.957031 3.449219 30.222656 C 3.304688 29.484375 3.230469 28.738281 3.230469 27.988281 C 3.230469 27.234375 3.304688 26.492188 3.449219 25.753906 C 3.597656 25.015625 3.8125 24.300781 4.101562 23.605469 C 4.390625 22.910156 4.742188 22.25 5.160156 21.625 C 5.578125 21 6.050781 20.421875 6.582031 19.890625 C 7.113281 19.359375 7.691406 18.886719 8.316406 18.46875 C 8.941406 18.050781 9.601562 17.699219 10.296875 17.410156 C 10.992188 17.121094 11.707031 16.90625 12.445312 16.757812 C 13.183594 16.613281 13.925781 16.539062 14.679688 16.539062 L 17.855469 16.539062 L 17.855469 15.976562 L 14.679688 15.976562 C 13.890625 15.976562 13.109375 16.050781 12.335938 16.207031 C 11.5625 16.359375 10.808594 16.589844 10.082031 16.890625 C 9.351562 17.191406 8.660156 17.5625 8.003906 18 C 7.347656 18.4375 6.742188 18.9375 6.183594 19.492188 C 5.628906 20.050781 5.128906 20.65625 4.691406 21.3125 C 4.253906 21.96875 3.882812 22.660156 3.582031 23.390625 C 3.28125 24.117188 3.050781 24.871094 2.898438 25.644531 C 2.742188 26.417969 2.667969 27.199219 2.667969 27.988281 Z M 2.667969 27.988281 " clip-rule="nonzero"/></clipPath><linearGradient x1="-4011.199996" gradientTransform="matrix(0.0744183, 0, 0, 0.0744183, 301.237207, -241.33316)" y1="3456.828316" x2="-3759.279214" gradientUnits="userSpaceOnUse" y2="3736.739369" id="0ca060dee1"><stop stop-opacity="1" stop-color="rgb(79.998779%, 0%, 100%)" offset="0"/><stop stop-opacity="1" stop-color="rgb(79.998779%, 0%, 100%)" offset="0.25"/><stop stop-opacity="1" stop-color="rgb(79.998779%, 0%, 100%)" offset="0.36283"/><stop stop-opacity="1" stop-color="rgb(79.998779%, 0%, 100%)" offset="0.375"/><stop stop-opacity="1" stop-color="rgb(79.998779%, 0%, 100%)" offset="0.4375"/><stop stop-opacity="1" stop-color="rgb(79.875183%, 0.0335693%, 100%)" offset="0.46875"/><stop stop-opacity="1" stop-color="rgb(78.300476%, 0.465393%, 100%)" offset="0.472656"/><stop stop-opacity="1" stop-color="rgb(76.850891%, 0.865173%, 100%)" offset="0.476563"/><stop stop-opacity="1" stop-color="rgb(75.39978%, 1.263428%, 100%)" offset="0.480469"/><stop stop-opacity="1" stop-color="rgb(73.948669%, 1.663208%, 100%)" offset="0.484375"/><stop stop-opacity="1" stop-color="rgb(72.497559%, 2.061462%, 100%)" offset="0.488281"/><stop stop-opacity="1" stop-color="rgb(71.047974%, 2.461243%, 100%)" offset="0.492188"/><stop stop-opacity="1" stop-color="rgb(69.596863%, 2.859497%, 100%)" offset="0.496094"/><stop stop-opacity="1" stop-color="rgb(68.147278%, 3.259277%, 100%)" offset="0.5"/><stop stop-opacity="1" stop-color="rgb(66.696167%, 3.657532%, 100%)" offset="0.503906"/><stop stop-opacity="1" stop-color="rgb(65.245056%, 4.055786%, 100%)" offset="0.507812"/><stop stop-opacity="1" stop-color="rgb(63.793945%, 4.454041%, 100%)" offset="0.511719"/><stop stop-opacity="1" stop-color="rgb(62.34436%, 4.853821%, 100%)" offset="0.515625"/><stop stop-opacity="1" stop-color="rgb(60.89325%, 5.252075%, 100%)" offset="0.519531"/><stop stop-opacity="1" stop-color="rgb(59.443665%, 5.651855%, 100%)" offset="0.523438"/><stop stop-opacity="1" stop-color="rgb(57.992554%, 6.05011%, 100%)" offset="0.527344"/><stop stop-opacity="1" stop-color="rgb(56.541443%, 6.44989%, 100%)" offset="0.53125"/><stop stop-opacity="1" stop-color="rgb(55.090332%, 6.848145%, 100%)" offset="0.535156"/><stop stop-opacity="1" stop-color="rgb(53.640747%, 7.247925%, 100%)" offset="0.539062"/><stop stop-opacity="1" stop-color="rgb(52.189636%, 7.646179%, 100%)" offset="0.542969"/><stop stop-opacity="1" stop-color="rgb(50.740051%, 8.045959%, 100%)" offset="0.546875"/><stop stop-opacity="1" stop-color="rgb(49.28894%, 8.444214%, 100%)" offset="0.550781"/><stop stop-opacity="1" stop-color="rgb(47.83783%, 8.843994%, 100%)" offset="0.554688"/><stop stop-opacity="1" stop-color="rgb(46.386719%, 9.242249%, 100%)" offset="0.558594"/><stop stop-opacity="1" stop-color="rgb(44.937134%, 9.642029%, 100%)" offset="0.5625"/><stop stop-opacity="1" stop-color="rgb(43.486023%, 10.040283%, 100%)" offset="0.566406"/><stop stop-opacity="1" stop-color="rgb(42.034912%, 10.438538%, 100%)" offset="0.570312"/><stop stop-opacity="1" stop-color="rgb(40.583801%, 10.836792%, 100%)" offset="0.574219"/><stop stop-opacity="1" stop-color="rgb(39.134216%, 11.236572%, 100%)" offset="0.578125"/><stop stop-opacity="1" stop-color="rgb(37.683105%, 11.634827%, 100%)" offset="0.582031"/><stop stop-opacity="1" stop-color="rgb(36.233521%, 12.034607%, 100%)" offset="0.585938"/><stop stop-opacity="1" stop-color="rgb(34.78241%, 12.432861%, 100%)" offset="0.589844"/><stop stop-opacity="1" stop-color="rgb(33.331299%, 12.832642%, 100%)" offset="0.59375"/><stop stop-opacity="1" stop-color="rgb(31.880188%, 13.230896%, 100%)" offset="0.597656"/><stop stop-opacity="1" stop-color="rgb(30.430603%, 13.630676%, 100%)" offset="0.601562"/><stop stop-opacity="1" stop-color="rgb(28.979492%, 14.028931%, 100%)" offset="0.605469"/><stop stop-opacity="1" stop-color="rgb(27.529907%, 14.428711%, 100%)" offset="0.609375"/><stop stop-opacity="1" stop-color="rgb(26.078796%, 14.826965%, 100%)" offset="0.613281"/><stop stop-opacity="1" stop-color="rgb(24.627686%, 15.226746%, 100%)" offset="0.617188"/><stop stop-opacity="1" stop-color="rgb(23.176575%, 15.625%, 100%)" offset="0.621094"/><stop stop-opacity="1" stop-color="rgb(21.72699%, 16.02478%, 100%)" offset="0.625"/><stop stop-opacity="1" stop-color="rgb(20.275879%, 16.423035%, 100%)" offset="0.628906"/><stop stop-opacity="1" stop-color="rgb(18.826294%, 16.821289%, 100%)" offset="0.632812"/><stop stop-opacity="1" stop-color="rgb(17.375183%, 17.219543%, 100%)" offset="0.636719"/><stop stop-opacity="1" stop-color="rgb(15.924072%, 17.619324%, 100%)" offset="0.640625"/><stop stop-opacity="1" stop-color="rgb(14.472961%, 18.017578%, 100%)" offset="0.644531"/><stop stop-opacity="1" stop-color="rgb(13.023376%, 18.417358%, 100%)" offset="0.648438"/><stop stop-opacity="1" stop-color="rgb(11.572266%, 18.815613%, 100%)" offset="0.652344"/><stop stop-opacity="1" stop-color="rgb(10.122681%, 19.215393%, 100%)" offset="0.65625"/><stop stop-opacity="1" stop-color="rgb(8.67157%, 19.613647%, 100%)" offset="0.660156"/><stop stop-opacity="1" stop-color="rgb(7.220459%, 20.013428%, 100%)" offset="0.664062"/><stop stop-opacity="1" stop-color="rgb(5.769348%, 20.411682%, 100%)" offset="0.667969"/><stop stop-opacity="1" stop-color="rgb(4.319763%, 20.811462%, 100%)" offset="0.671875"/><stop stop-opacity="1" stop-color="rgb(2.868652%, 21.209717%, 100%)" offset="0.675781"/><stop stop-opacity="1" stop-color="rgb(1.417542%, 21.609497%, 100%)" offset="0.679688"/><stop stop-opacity="1" stop-color="rgb(0.708008%, 21.803284%, 100%)" offset="0.683594"/><stop stop-opacity="1" stop-color="rgb(0%, 21.998596%, 100%)" offset="0.6875"/><stop stop-opacity="1" stop-color="rgb(0%, 21.998596%, 100%)" offset="0.75"/><stop stop-opacity="1" stop-color="rgb(0%, 21.998596%, 100%)" offset="1"/></linearGradient><clipPath id="26b3802e73"><path d="M 25 15 L 39 15 L 39 26 L 25 26 Z M 25 15 " clip-rule="nonzero"/></clipPath><clipPath id="e2a9ad9bc7"><path d="M 30.773438 29.777344 L 21.480469 20.484375 L 30.269531 11.695312 L 39.5625 20.988281 Z M 30.773438 29.777344 " clip-rule="nonzero"/></clipPath><clipPath id="79af75f328"><path d="M 30.773438 29.777344 L 21.480469 20.484375 L 30.269531 11.695312 L 39.5625 20.988281 Z M 30.773438 29.777344 " clip-rule="nonzero"/></clipPath><clipPath id="d97e8e0416"><path d="M 32.8125 21.613281 L 26 21.613281 L 26.003906 22.179688 L 32.8125 22.179688 Z M 25.996094 16.515625 L 30.777344 16.515625 L 30.777344 15.949219 L 25.996094 15.953125 Z M 26 17.929688 L 34.074219 17.929688 L 34.074219 17.363281 L 26 17.363281 Z M 26.003906 24.445312 L 26.007812 25.007812 L 35.140625 25.007812 L 35.140625 24.445312 Z M 26.003906 23.597656 L 36.941406 23.59375 L 36.941406 23.03125 L 26.003906 23.027344 Z M 25.996094 19.347656 L 36.503906 19.347656 L 36.503906 18.78125 L 26 18.78125 Z M 26 20.761719 L 38.765625 20.761719 L 38.765625 20.199219 L 26 20.199219 Z M 26 20.761719 " clip-rule="nonzero"/></clipPath><linearGradient x1="-3630.180357" gradientTransform="matrix(0.0746414, 0, 0, 0.0746414, 296.956329, -219.530825)" y1="3215.53" x2="-3459.067589" gradientUnits="userSpaceOnUse" y2="3215.53" id="dc759c151d"><stop stop-opacity="1" stop-color="rgb(54.899597%, 0%, 92.89856%)" offset="0"/><stop stop-opacity="1" stop-color="rgb(54.684448%, 0%, 92.5354%)" offset="0.00390625"/><stop stop-opacity="1" stop-color="rgb(54.470825%, 0%, 92.173767%)" offset="0.0078125"/><stop stop-opacity="1" stop-color="rgb(54.255676%, 0%, 91.810608%)" offset="0.0117188"/><stop stop-opacity="1" stop-color="rgb(54.042053%, 0%, 91.447449%)" offset="0.015625"/><stop stop-opacity="1" stop-color="rgb(53.826904%, 0%, 91.08429%)" offset="0.0195312"/><stop stop-opacity="1" stop-color="rgb(53.613281%, 0%, 90.722656%)" offset="0.0234375"/><stop stop-opacity="1" stop-color="rgb(53.398132%, 0%, 90.359497%)" offset="0.0273437"/><stop stop-opacity="1" stop-color="rgb(53.182983%, 0%, 89.996338%)" offset="0.03125"/><stop stop-opacity="1" stop-color="rgb(52.967834%, 0%, 89.633179%)" offset="0.0351562"/><stop stop-opacity="1" stop-color="rgb(52.754211%, 0%, 89.27002%)" offset="0.0390625"/><stop stop-opacity="1" stop-color="rgb(52.539062%, 0%, 88.90686%)" offset="0.0429688"/><stop stop-opacity="1" stop-color="rgb(52.325439%, 0%, 88.545227%)" offset="0.046875"/><stop stop-opacity="1" stop-color="rgb(52.110291%, 0%, 88.182068%)" offset="0.0507812"/><stop stop-opacity="1" stop-color="rgb(51.896667%, 0%, 87.818909%)" offset="0.0546875"/><stop stop-opacity="1" stop-color="rgb(51.681519%, 0%, 87.45575%)" offset="0.0585937"/><stop stop-opacity="1" stop-color="rgb(51.467896%, 0%, 87.09259%)" offset="0.0625"/><stop stop-opacity="1" stop-color="rgb(51.252747%, 0%, 86.729431%)" offset="0.0664062"/><stop stop-opacity="1" stop-color="rgb(51.039124%, 0%, 86.366272%)" offset="0.0703125"/><stop stop-opacity="1" stop-color="rgb(50.823975%, 0%, 86.003113%)" offset="0.0742188"/><stop stop-opacity="1" stop-color="rgb(50.610352%, 0%, 85.641479%)" offset="0.078125"/><stop stop-opacity="1" stop-color="rgb(50.395203%, 0%, 85.27832%)" offset="0.0820312"/><stop stop-opacity="1" stop-color="rgb(50.18158%, 0%, 84.915161%)" offset="0.0859375"/><stop stop-opacity="1" stop-color="rgb(49.966431%, 0%, 84.552002%)" offset="0.0898437"/><stop stop-opacity="1" stop-color="rgb(49.752808%, 0%, 84.188843%)" offset="0.09375"/><stop stop-opacity="1" stop-color="rgb(49.537659%, 0%, 83.825684%)" offset="0.0976562"/><stop stop-opacity="1" stop-color="rgb(49.32251%, 0%, 83.46405%)" offset="0.101562"/><stop stop-opacity="1" stop-color="rgb(49.107361%, 0%, 83.100891%)" offset="0.105469"/><stop stop-opacity="1" stop-color="rgb(48.893738%, 0%, 82.737732%)" offset="0.109375"/><stop stop-opacity="1" stop-color="rgb(48.678589%, 0%, 82.374573%)" offset="0.113281"/><stop stop-opacity="1" stop-color="rgb(48.464966%, 0%, 82.011414%)" offset="0.117187"/><stop stop-opacity="1" stop-color="rgb(48.249817%, 0%, 81.648254%)" offset="0.121094"/><stop stop-opacity="1" stop-color="rgb(48.036194%, 0%, 81.286621%)" offset="0.125"/><stop stop-opacity="1" stop-color="rgb(47.821045%, 0%, 80.923462%)" offset="0.128906"/><stop stop-opacity="1" stop-color="rgb(47.607422%, 0%, 80.560303%)" offset="0.132812"/><stop stop-opacity="1" stop-color="rgb(47.392273%, 0%, 80.197144%)" offset="0.136719"/><stop stop-opacity="1" stop-color="rgb(47.17865%, 0%, 79.833984%)" offset="0.140625"/><stop stop-opacity="1" stop-color="rgb(46.963501%, 0%, 79.470825%)" offset="0.144531"/><stop stop-opacity="1" stop-color="rgb(46.749878%, 0%, 79.109192%)" offset="0.148437"/><stop stop-opacity="1" stop-color="rgb(46.534729%, 0%, 78.746033%)" offset="0.152344"/><stop stop-opacity="1" stop-color="rgb(46.321106%, 0%, 78.382874%)" offset="0.15625"/><stop stop-opacity="1" stop-color="rgb(46.105957%, 0%, 78.019714%)" offset="0.160156"/><stop stop-opacity="1" stop-color="rgb(45.892334%, 0%, 77.656555%)" offset="0.164062"/><stop stop-opacity="1" stop-color="rgb(45.677185%, 0%, 77.293396%)" offset="0.167969"/><stop stop-opacity="1" stop-color="rgb(45.462036%, 0%, 76.931763%)" offset="0.171875"/><stop stop-opacity="1" stop-color="rgb(45.246887%, 0%, 76.568604%)" offset="0.175781"/><stop stop-opacity="1" stop-color="rgb(45.033264%, 0%, 76.205444%)" offset="0.179687"/><stop stop-opacity="1" stop-color="rgb(44.818115%, 0%, 75.842285%)" offset="0.183594"/><stop stop-opacity="1" stop-color="rgb(44.604492%, 0%, 75.479126%)" offset="0.1875"/><stop stop-opacity="1" stop-color="rgb(44.389343%, 0%, 75.115967%)" offset="0.191406"/><stop stop-opacity="1" stop-color="rgb(44.17572%, 0%, 74.754333%)" offset="0.195312"/><stop stop-opacity="1" stop-color="rgb(43.960571%, 0%, 74.391174%)" offset="0.199219"/><stop stop-opacity="1" stop-color="rgb(43.746948%, 0%, 74.028015%)" offset="0.203125"/><stop stop-opacity="1" stop-color="rgb(43.531799%, 0%, 73.664856%)" offset="0.207031"/><stop stop-opacity="1" stop-color="rgb(43.318176%, 0%, 73.301697%)" offset="0.210937"/><stop stop-opacity="1" stop-color="rgb(43.103027%, 0%, 72.938538%)" offset="0.214844"/><stop stop-opacity="1" stop-color="rgb(42.889404%, 0%, 72.575378%)" offset="0.21875"/><stop stop-opacity="1" stop-color="rgb(42.674255%, 0%, 72.212219%)" offset="0.222656"/><stop stop-opacity="1" stop-color="rgb(42.460632%, 0%, 71.850586%)" offset="0.226562"/><stop stop-opacity="1" stop-color="rgb(42.245483%, 0%, 71.487427%)" offset="0.230469"/><stop stop-opacity="1" stop-color="rgb(42.03186%, 0%, 71.124268%)" offset="0.234375"/><stop stop-opacity="1" stop-color="rgb(41.816711%, 0%, 70.761108%)" offset="0.238281"/><stop stop-opacity="1" stop-color="rgb(41.601562%, 0%, 70.397949%)" offset="0.242187"/><stop stop-opacity="1" stop-color="rgb(41.386414%, 0%, 70.03479%)" offset="0.246094"/><stop stop-opacity="1" stop-color="rgb(41.172791%, 0%, 69.673157%)" offset="0.25"/><stop stop-opacity="1" stop-color="rgb(40.957642%, 0%, 69.309998%)" offset="0.253906"/><stop stop-opacity="1" stop-color="rgb(40.744019%, 0%, 68.946838%)" offset="0.257812"/><stop stop-opacity="1" stop-color="rgb(40.52887%, 0%, 68.583679%)" offset="0.261719"/><stop stop-opacity="1" stop-color="rgb(40.315247%, 0%, 68.22052%)" offset="0.265625"/><stop stop-opacity="1" stop-color="rgb(40.100098%, 0%, 67.857361%)" offset="0.269531"/><stop stop-opacity="1" stop-color="rgb(39.886475%, 0%, 67.495728%)" offset="0.273437"/><stop stop-opacity="1" stop-color="rgb(39.671326%, 0%, 67.132568%)" offset="0.277344"/><stop stop-opacity="1" stop-color="rgb(39.457703%, 0%, 66.769409%)" offset="0.28125"/><stop stop-opacity="1" stop-color="rgb(39.242554%, 0%, 66.40625%)" offset="0.285156"/><stop stop-opacity="1" stop-color="rgb(39.028931%, 0%, 66.043091%)" offset="0.289062"/><stop stop-opacity="1" stop-color="rgb(38.813782%, 0%, 65.679932%)" offset="0.292969"/><stop stop-opacity="1" stop-color="rgb(38.600159%, 0%, 65.318298%)" offset="0.296875"/><stop stop-opacity="1" stop-color="rgb(38.38501%, 0%, 64.955139%)" offset="0.300781"/><stop stop-opacity="1" stop-color="rgb(38.171387%, 0%, 64.59198%)" offset="0.304688"/><stop stop-opacity="1" stop-color="rgb(37.956238%, 0%, 64.228821%)" offset="0.308594"/><stop stop-opacity="1" stop-color="rgb(37.741089%, 0%, 63.865662%)" offset="0.3125"/><stop stop-opacity="1" stop-color="rgb(37.52594%, 0%, 63.502502%)" offset="0.316406"/><stop stop-opacity="1" stop-color="rgb(37.312317%, 0%, 63.140869%)" offset="0.320312"/><stop stop-opacity="1" stop-color="rgb(37.097168%, 0%, 62.77771%)" offset="0.324219"/><stop stop-opacity="1" stop-color="rgb(36.883545%, 0%, 62.414551%)" offset="0.328125"/><stop stop-opacity="1" stop-color="rgb(36.668396%, 0%, 62.051392%)" offset="0.332031"/><stop stop-opacity="1" stop-color="rgb(36.454773%, 0%, 61.688232%)" offset="0.335938"/><stop stop-opacity="1" stop-color="rgb(36.239624%, 0%, 61.325073%)" offset="0.339844"/><stop stop-opacity="1" stop-color="rgb(36.026001%, 0%, 60.96344%)" offset="0.34375"/><stop stop-opacity="1" stop-color="rgb(35.810852%, 0%, 60.600281%)" offset="0.347656"/><stop stop-opacity="1" stop-color="rgb(35.597229%, 0%, 60.237122%)" offset="0.351562"/><stop stop-opacity="1" stop-color="rgb(35.38208%, 0%, 59.873962%)" offset="0.355469"/><stop stop-opacity="1" stop-color="rgb(35.168457%, 0%, 59.510803%)" offset="0.359375"/><stop stop-opacity="1" stop-color="rgb(34.953308%, 0%, 59.147644%)" offset="0.363281"/><stop stop-opacity="1" stop-color="rgb(34.739685%, 0%, 58.784485%)" offset="0.367187"/><stop stop-opacity="1" stop-color="rgb(34.524536%, 0%, 58.421326%)" offset="0.371094"/><stop stop-opacity="1" stop-color="rgb(34.310913%, 0%, 58.059692%)" offset="0.375"/><stop stop-opacity="1" stop-color="rgb(34.095764%, 0%, 57.696533%)" offset="0.378906"/><stop stop-opacity="1" stop-color="rgb(33.882141%, 0%, 57.333374%)" offset="0.382812"/><stop stop-opacity="1" stop-color="rgb(33.666992%, 0%, 56.970215%)" offset="0.386719"/><stop stop-opacity="1" stop-color="rgb(33.451843%, 0%, 56.607056%)" offset="0.390625"/><stop stop-opacity="1" stop-color="rgb(33.236694%, 0%, 56.243896%)" offset="0.394531"/><stop stop-opacity="1" stop-color="rgb(33.023071%, 0%, 55.882263%)" offset="0.398437"/><stop stop-opacity="1" stop-color="rgb(32.807922%, 0%, 55.519104%)" offset="0.402344"/><stop stop-opacity="1" stop-color="rgb(32.594299%, 0%, 55.155945%)" offset="0.40625"/><stop stop-opacity="1" stop-color="rgb(32.37915%, 0%, 54.792786%)" offset="0.410156"/><stop stop-opacity="1" stop-color="rgb(32.165527%, 0%, 54.429626%)" offset="0.414062"/><stop stop-opacity="1" stop-color="rgb(31.950378%, 0%, 54.066467%)" offset="0.417969"/><stop stop-opacity="1" stop-color="rgb(31.736755%, 0%, 53.704834%)" offset="0.421875"/><stop stop-opacity="1" stop-color="rgb(31.521606%, 0%, 53.341675%)" offset="0.425781"/><stop stop-opacity="1" stop-color="rgb(31.307983%, 0%, 52.978516%)" offset="0.429688"/><stop stop-opacity="1" stop-color="rgb(31.092834%, 0%, 52.615356%)" offset="0.433594"/><stop stop-opacity="1" stop-color="rgb(30.879211%, 0%, 52.252197%)" offset="0.4375"/><stop stop-opacity="1" stop-color="rgb(30.664062%, 0%, 51.889038%)" offset="0.441406"/><stop stop-opacity="1" stop-color="rgb(30.450439%, 0%, 51.527405%)" offset="0.445312"/><stop stop-opacity="1" stop-color="rgb(30.235291%, 0%, 51.164246%)" offset="0.449219"/><stop stop-opacity="1" stop-color="rgb(30.021667%, 0%, 50.801086%)" offset="0.453125"/><stop stop-opacity="1" stop-color="rgb(29.806519%, 0%, 50.437927%)" offset="0.457031"/><stop stop-opacity="1" stop-color="rgb(29.59137%, 0%, 50.074768%)" offset="0.460937"/><stop stop-opacity="1" stop-color="rgb(29.376221%, 0%, 49.711609%)" offset="0.464844"/><stop stop-opacity="1" stop-color="rgb(29.162598%, 0%, 49.349976%)" offset="0.46875"/><stop stop-opacity="1" stop-color="rgb(28.947449%, 0%, 48.986816%)" offset="0.472656"/><stop stop-opacity="1" stop-color="rgb(28.733826%, 0%, 48.623657%)" offset="0.476562"/><stop stop-opacity="1" stop-color="rgb(28.518677%, 0%, 48.260498%)" offset="0.480469"/><stop stop-opacity="1" stop-color="rgb(28.305054%, 0%, 47.897339%)" offset="0.484375"/><stop stop-opacity="1" stop-color="rgb(28.089905%, 0%, 47.53418%)" offset="0.488281"/><stop stop-opacity="1" stop-color="rgb(27.876282%, 0%, 47.172546%)" offset="0.492187"/><stop stop-opacity="1" stop-color="rgb(27.661133%, 0%, 46.809387%)" offset="0.496094"/><stop stop-opacity="1" stop-color="rgb(27.44751%, 0%, 46.446228%)" offset="0.5"/><stop stop-opacity="1" stop-color="rgb(27.232361%, 0%, 46.083069%)" offset="0.503906"/><stop stop-opacity="1" stop-color="rgb(27.018738%, 0%, 45.71991%)" offset="0.507812"/><stop stop-opacity="1" stop-color="rgb(26.803589%, 0%, 45.35675%)" offset="0.511719"/><stop stop-opacity="1" stop-color="rgb(26.589966%, 0%, 44.993591%)" offset="0.515625"/><stop stop-opacity="1" stop-color="rgb(26.374817%, 0%, 44.630432%)" offset="0.519531"/><stop stop-opacity="1" stop-color="rgb(26.161194%, 0%, 44.268799%)" offset="0.523437"/><stop stop-opacity="1" stop-color="rgb(25.946045%, 0%, 43.90564%)" offset="0.527344"/><stop stop-opacity="1" stop-color="rgb(25.730896%, 0%, 43.54248%)" offset="0.53125"/><stop stop-opacity="1" stop-color="rgb(25.515747%, 0%, 43.179321%)" offset="0.535156"/><stop stop-opacity="1" stop-color="rgb(25.302124%, 0%, 42.816162%)" offset="0.539062"/><stop stop-opacity="1" stop-color="rgb(25.086975%, 0%, 42.453003%)" offset="0.542969"/><stop stop-opacity="1" stop-color="rgb(24.873352%, 0%, 42.09137%)" offset="0.546875"/><stop stop-opacity="1" stop-color="rgb(24.658203%, 0%, 41.72821%)" offset="0.550781"/><stop stop-opacity="1" stop-color="rgb(24.44458%, 0%, 41.365051%)" offset="0.554687"/><stop stop-opacity="1" stop-color="rgb(24.229431%, 0%, 41.001892%)" offset="0.558594"/><stop stop-opacity="1" stop-color="rgb(24.015808%, 0%, 40.638733%)" offset="0.5625"/><stop stop-opacity="1" stop-color="rgb(23.800659%, 0%, 40.275574%)" offset="0.566406"/><stop stop-opacity="1" stop-color="rgb(23.587036%, 0%, 39.91394%)" offset="0.570312"/><stop stop-opacity="1" stop-color="rgb(23.371887%, 0%, 39.550781%)" offset="0.574219"/><stop stop-opacity="1" stop-color="rgb(23.158264%, 0%, 39.187622%)" offset="0.578125"/><stop stop-opacity="1" stop-color="rgb(22.943115%, 0%, 38.824463%)" offset="0.582031"/><stop stop-opacity="1" stop-color="rgb(22.729492%, 0%, 38.461304%)" offset="0.585937"/><stop stop-opacity="1" stop-color="rgb(22.514343%, 0%, 38.098145%)" offset="0.589844"/><stop stop-opacity="1" stop-color="rgb(22.30072%, 0%, 37.736511%)" offset="0.59375"/><stop stop-opacity="1" stop-color="rgb(22.085571%, 0%, 37.373352%)" offset="0.597656"/><stop stop-opacity="1" stop-color="rgb(21.870422%, 0%, 37.010193%)" offset="0.601562"/><stop stop-opacity="1" stop-color="rgb(21.655273%, 0%, 36.647034%)" offset="0.605469"/><stop stop-opacity="1" stop-color="rgb(21.44165%, 0%, 36.283875%)" offset="0.609375"/><stop stop-opacity="1" stop-color="rgb(21.226501%, 0%, 35.920715%)" offset="0.613281"/><stop stop-opacity="1" stop-color="rgb(21.012878%, 0%, 35.559082%)" offset="0.617187"/><stop stop-opacity="1" stop-color="rgb(20.797729%, 0%, 35.195923%)" offset="0.621094"/><stop stop-opacity="1" stop-color="rgb(20.584106%, 0%, 34.832764%)" offset="0.625"/><stop stop-opacity="1" stop-color="rgb(20.368958%, 0%, 34.469604%)" offset="0.628906"/><stop stop-opacity="1" stop-color="rgb(20.155334%, 0%, 34.106445%)" offset="0.632812"/><stop stop-opacity="1" stop-color="rgb(19.940186%, 0%, 33.743286%)" offset="0.636719"/><stop stop-opacity="1" stop-color="rgb(19.726562%, 0%, 33.381653%)" offset="0.640625"/><stop stop-opacity="1" stop-color="rgb(19.511414%, 0%, 33.018494%)" offset="0.644531"/><stop stop-opacity="1" stop-color="rgb(19.297791%, 0%, 32.655334%)" offset="0.648437"/><stop stop-opacity="1" stop-color="rgb(19.082642%, 0%, 32.292175%)" offset="0.652344"/><stop stop-opacity="1" stop-color="rgb(18.869019%, 0%, 31.929016%)" offset="0.65625"/><stop stop-opacity="1" stop-color="rgb(18.65387%, 0%, 31.565857%)" offset="0.660156"/><stop stop-opacity="1" stop-color="rgb(18.440247%, 0%, 31.202698%)" offset="0.664062"/><stop stop-opacity="1" stop-color="rgb(18.225098%, 0%, 30.839539%)" offset="0.667969"/><stop stop-opacity="1" stop-color="rgb(18.009949%, 0%, 30.477905%)" offset="0.671875"/><stop stop-opacity="1" stop-color="rgb(17.7948%, 0%, 30.114746%)" offset="0.675781"/><stop stop-opacity="1" stop-color="rgb(17.581177%, 0%, 29.751587%)" offset="0.679687"/><stop stop-opacity="1" stop-color="rgb(17.366028%, 0%, 29.388428%)" offset="0.683594"/><stop stop-opacity="1" stop-color="rgb(17.152405%, 0%, 29.025269%)" offset="0.6875"/><stop stop-opacity="1" stop-color="rgb(16.937256%, 0%, 28.662109%)" offset="0.691406"/><stop stop-opacity="1" stop-color="rgb(16.723633%, 0%, 28.300476%)" offset="0.695312"/><stop stop-opacity="1" stop-color="rgb(16.508484%, 0%, 27.937317%)" offset="0.699219"/><stop stop-opacity="1" stop-color="rgb(16.294861%, 0%, 27.574158%)" offset="0.703125"/><stop stop-opacity="1" stop-color="rgb(16.079712%, 0%, 27.210999%)" offset="0.707031"/><stop stop-opacity="1" stop-color="rgb(15.866089%, 0%, 26.847839%)" offset="0.710937"/><stop stop-opacity="1" stop-color="rgb(15.65094%, 0%, 26.48468%)" offset="0.714844"/><stop stop-opacity="1" stop-color="rgb(15.437317%, 0%, 26.123047%)" offset="0.71875"/><stop stop-opacity="1" stop-color="rgb(15.222168%, 0%, 25.759888%)" offset="0.722656"/><stop stop-opacity="1" stop-color="rgb(15.008545%, 0%, 25.396729%)" offset="0.726562"/><stop stop-opacity="1" stop-color="rgb(14.793396%, 0%, 25.033569%)" offset="0.730469"/><stop stop-opacity="1" stop-color="rgb(14.579773%, 0%, 24.67041%)" offset="0.734375"/><stop stop-opacity="1" stop-color="rgb(14.364624%, 0%, 24.307251%)" offset="0.738281"/><stop stop-opacity="1" stop-color="rgb(14.149475%, 0%, 23.945618%)" offset="0.742187"/><stop stop-opacity="1" stop-color="rgb(13.934326%, 0%, 23.582458%)" offset="0.746094"/><stop stop-opacity="1" stop-color="rgb(13.720703%, 0%, 23.219299%)" offset="0.75"/><stop stop-opacity="1" stop-color="rgb(13.505554%, 0%, 22.85614%)" offset="0.753906"/><stop stop-opacity="1" stop-color="rgb(13.291931%, 0%, 22.492981%)" offset="0.757812"/><stop stop-opacity="1" stop-color="rgb(13.076782%, 0%, 22.129822%)" offset="0.761719"/><stop stop-opacity="1" stop-color="rgb(12.863159%, 0%, 21.768188%)" offset="0.765625"/><stop stop-opacity="1" stop-color="rgb(12.64801%, 0%, 21.405029%)" offset="0.769531"/><stop stop-opacity="1" stop-color="rgb(12.434387%, 0%, 21.04187%)" offset="0.773437"/><stop stop-opacity="1" stop-color="rgb(12.219238%, 0%, 20.678711%)" offset="0.777344"/><stop stop-opacity="1" stop-color="rgb(12.005615%, 0%, 20.315552%)" offset="0.78125"/><stop stop-opacity="1" stop-color="rgb(11.790466%, 0%, 19.952393%)" offset="0.785156"/><stop stop-opacity="1" stop-color="rgb(11.576843%, 0%, 19.590759%)" offset="0.789062"/><stop stop-opacity="1" stop-color="rgb(11.361694%, 0%, 19.2276%)" offset="0.792969"/><stop stop-opacity="1" stop-color="rgb(11.148071%, 0%, 18.864441%)" offset="0.796875"/><stop stop-opacity="1" stop-color="rgb(10.932922%, 0%, 18.501282%)" offset="0.800781"/><stop stop-opacity="1" stop-color="rgb(10.719299%, 0%, 18.138123%)" offset="0.804687"/><stop stop-opacity="1" stop-color="rgb(10.50415%, 0%, 17.774963%)" offset="0.808594"/><stop stop-opacity="1" stop-color="rgb(10.289001%, 0%, 17.411804%)" offset="0.8125"/><stop stop-opacity="1" stop-color="rgb(10.073853%, 0%, 17.048645%)" offset="0.816406"/><stop stop-opacity="1" stop-color="rgb(9.860229%, 0%, 16.687012%)" offset="0.820312"/><stop stop-opacity="1" stop-color="rgb(9.645081%, 0%, 16.323853%)" offset="0.824219"/><stop stop-opacity="1" stop-color="rgb(9.431458%, 0%, 15.960693%)" offset="0.828125"/><stop stop-opacity="1" stop-color="rgb(9.216309%, 0%, 15.597534%)" offset="0.832031"/><stop stop-opacity="1" stop-color="rgb(9.002686%, 0%, 15.234375%)" offset="0.835937"/><stop stop-opacity="1" stop-color="rgb(8.787537%, 0%, 14.871216%)" offset="0.839844"/><stop stop-opacity="1" stop-color="rgb(8.573914%, 0%, 14.509583%)" offset="0.84375"/><stop stop-opacity="1" stop-color="rgb(8.358765%, 0%, 14.146423%)" offset="0.847656"/><stop stop-opacity="1" stop-color="rgb(8.145142%, 0%, 13.783264%)" offset="0.851562"/><stop stop-opacity="1" stop-color="rgb(7.929993%, 0%, 13.420105%)" offset="0.855469"/><stop stop-opacity="1" stop-color="rgb(7.71637%, 0%, 13.056946%)" offset="0.859375"/><stop stop-opacity="1" stop-color="rgb(7.501221%, 0%, 12.693787%)" offset="0.863281"/><stop stop-opacity="1" stop-color="rgb(7.287598%, 0%, 12.332153%)" offset="0.867187"/><stop stop-opacity="1" stop-color="rgb(7.072449%, 0%, 11.968994%)" offset="0.871094"/><stop stop-opacity="1" stop-color="rgb(6.858826%, 0%, 11.605835%)" offset="0.875"/><stop stop-opacity="1" stop-color="rgb(6.643677%, 0%, 11.242676%)" offset="0.878906"/><stop stop-opacity="1" stop-color="rgb(6.430054%, 0%, 10.879517%)" offset="0.882812"/><stop stop-opacity="1" stop-color="rgb(6.214905%, 0%, 10.516357%)" offset="0.886719"/><stop stop-opacity="1" stop-color="rgb(5.999756%, 0%, 10.154724%)" offset="0.890625"/><stop stop-opacity="1" stop-color="rgb(5.784607%, 0%, 9.791565%)" offset="0.894531"/><stop stop-opacity="1" stop-color="rgb(5.570984%, 0%, 9.428406%)" offset="0.898437"/><stop stop-opacity="1" stop-color="rgb(5.355835%, 0%, 9.065247%)" offset="0.902344"/><stop stop-opacity="1" stop-color="rgb(5.142212%, 0%, 8.702087%)" offset="0.90625"/><stop stop-opacity="1" stop-color="rgb(4.927063%, 0%, 8.338928%)" offset="0.910156"/><stop stop-opacity="1" stop-color="rgb(4.71344%, 0%, 7.977295%)" offset="0.914062"/><stop stop-opacity="1" stop-color="rgb(4.498291%, 0%, 7.614136%)" offset="0.917969"/><stop stop-opacity="1" stop-color="rgb(4.284668%, 0%, 7.250977%)" offset="0.921875"/><stop stop-opacity="1" stop-color="rgb(4.069519%, 0%, 6.887817%)" offset="0.925781"/><stop stop-opacity="1" stop-color="rgb(3.855896%, 0%, 6.524658%)" offset="0.929687"/><stop stop-opacity="1" stop-color="rgb(3.640747%, 0%, 6.161499%)" offset="0.933594"/><stop stop-opacity="1" stop-color="rgb(3.427124%, 0%, 5.799866%)" offset="0.9375"/><stop stop-opacity="1" stop-color="rgb(3.211975%, 0%, 5.436707%)" offset="0.941406"/><stop stop-opacity="1" stop-color="rgb(2.998352%, 0%, 5.073547%)" offset="0.945312"/><stop stop-opacity="1" stop-color="rgb(2.783203%, 0%, 4.710388%)" offset="0.949219"/><stop stop-opacity="1" stop-color="rgb(2.56958%, 0%, 4.347229%)" offset="0.953125"/><stop stop-opacity="1" stop-color="rgb(2.354431%, 0%, 3.98407%)" offset="0.957031"/><stop stop-opacity="1" stop-color="rgb(2.139282%, 0%, 3.620911%)" offset="0.960937"/><stop stop-opacity="1" stop-color="rgb(1.924133%, 0%, 3.257751%)" offset="0.964844"/><stop stop-opacity="1" stop-color="rgb(1.71051%, 0%, 2.896118%)" offset="0.96875"/><stop stop-opacity="1" stop-color="rgb(1.495361%, 0%, 2.532959%)" offset="0.972656"/><stop stop-opacity="1" stop-color="rgb(1.281738%, 0%, 2.1698%)" offset="0.976562"/><stop stop-opacity="1" stop-color="rgb(1.066589%, 0%, 1.806641%)" offset="0.980469"/><stop stop-opacity="1" stop-color="rgb(0.852966%, 0%, 1.443481%)" offset="0.984375"/><stop stop-opacity="1" stop-color="rgb(0.637817%, 0%, 1.080322%)" offset="0.988281"/><stop stop-opacity="1" stop-color="rgb(0.424194%, 0%, 0.718689%)" offset="0.992187"/><stop stop-opacity="1" stop-color="rgb(0.212097%, 0%, 0.358582%)" offset="0.996094"/><stop stop-opacity="1" stop-color="rgb(0%, 0%, 0%)" offset="1"/></linearGradient><clipPath id="d35ed081e5"><path d="M 14 2 L 27 2 L 27 40 L 14 40 Z M 14 2 " clip-rule="nonzero"/></clipPath><clipPath id="941152e4f1"><path d="M 17.105469 42.492188 L -2.699219 22.691406 L 17.507812 2.484375 L 37.308594 22.285156 Z M 17.105469 42.492188 " clip-rule="nonzero"/></clipPath><clipPath id="0dcd2c3f86"><path d="M 17.105469 42.492188 L -2.699219 22.691406 L 17.507812 2.484375 L 37.308594 22.285156 Z M 17.105469 42.492188 " clip-rule="nonzero"/></clipPath><clipPath id="957cfaa12c"><path d="M 14.613281 32.390625 L 14.613281 32.953125 C 14.9375 32.953125 15.257812 32.921875 15.578125 32.859375 C 15.894531 32.792969 16.203125 32.699219 16.503906 32.578125 C 16.804688 32.453125 17.089844 32.300781 17.359375 32.117188 C 17.628906 31.9375 17.878906 31.734375 18.109375 31.503906 C 18.335938 31.273438 18.542969 31.023438 18.722656 30.753906 C 18.902344 30.484375 19.054688 30.199219 19.179688 29.898438 C 19.304688 29.601562 19.398438 29.289062 19.460938 28.972656 C 19.527344 28.652344 19.558594 28.332031 19.558594 28.007812 L 19.558594 4.488281 L 18.996094 3.925781 L 18.996094 28.007812 C 18.996094 28.296875 18.96875 28.582031 18.910156 28.863281 C 18.855469 29.144531 18.769531 29.417969 18.660156 29.683594 C 18.550781 29.949219 18.414062 30.203125 18.253906 30.441406 C 18.09375 30.679688 17.914062 30.902344 17.710938 31.105469 C 17.507812 31.308594 17.285156 31.492188 17.046875 31.652344 C 16.808594 31.8125 16.554688 31.945312 16.289062 32.054688 C 16.023438 32.167969 15.75 32.25 15.464844 32.304688 C 15.183594 32.363281 14.898438 32.390625 14.613281 32.390625 Z M 17.585938 28.007812 C 17.585938 28.402344 17.507812 28.78125 17.355469 29.148438 C 17.207031 29.511719 16.992188 29.832031 16.710938 30.113281 C 16.433594 30.390625 16.113281 30.605469 15.746094 30.757812 C 15.382812 30.910156 15.003906 30.984375 14.609375 30.984375 L 14.609375 31.546875 C 15.078125 31.546875 15.53125 31.457031 15.960938 31.277344 C 16.394531 31.097656 16.777344 30.839844 17.109375 30.511719 C 17.441406 30.179688 17.695312 29.796875 17.878906 29.363281 C 18.058594 28.929688 18.148438 28.476562 18.148438 28.007812 L 18.148438 3.078125 L 17.585938 2.515625 Z M 18.707031 32.105469 C 18.164062 32.648438 17.539062 33.070312 16.828125 33.363281 C 16.121094 33.65625 15.378906 33.800781 14.613281 33.800781 L 14.613281 34.363281 C 15.027344 34.363281 15.441406 34.324219 15.851562 34.242188 C 16.261719 34.160156 16.660156 34.039062 17.042969 33.878906 C 17.429688 33.71875 17.796875 33.523438 18.144531 33.292969 C 18.488281 33.058594 18.8125 32.796875 19.105469 32.5 C 19.402344 32.207031 19.664062 31.886719 19.898438 31.539062 C 20.128906 31.191406 20.324219 30.824219 20.484375 30.4375 C 20.644531 30.054688 20.765625 29.65625 20.847656 29.246094 C 20.925781 28.835938 20.96875 28.425781 20.96875 28.007812 L 20.96875 5.898438 L 20.40625 5.335938 L 20.40625 28.007812 C 20.40625 28.777344 20.261719 29.515625 19.964844 30.226562 C 19.671875 30.9375 19.253906 31.5625 18.707031 32.105469 Z M 22.691406 36.089844 C 21.625 37.164062 20.386719 37.992188 18.988281 38.574219 C 17.585938 39.152344 16.128906 39.441406 14.613281 39.4375 L 14.609375 40 C 15.398438 40 16.179688 39.921875 16.949219 39.769531 C 17.722656 39.613281 18.472656 39.386719 19.199219 39.085938 C 19.929688 38.785156 20.617188 38.414062 21.273438 37.976562 C 21.929688 37.539062 22.535156 37.042969 23.089844 36.488281 C 23.648438 35.929688 24.144531 35.324219 24.582031 34.667969 C 25.019531 34.015625 25.390625 33.324219 25.691406 32.597656 C 25.992188 31.867188 26.21875 31.117188 26.371094 30.347656 C 26.527344 29.574219 26.601562 28.792969 26.601562 28.007812 L 26.601562 11.53125 L 26.039062 10.96875 L 26.039062 28.007812 C 26.042969 29.523438 25.757812 30.984375 25.175781 32.382812 C 24.597656 33.785156 23.769531 35.019531 22.691406 36.089844 Z M 21.695312 35.089844 C 20.757812 36.035156 19.675781 36.761719 18.449219 37.269531 C 17.222656 37.777344 15.941406 38.03125 14.613281 38.03125 L 14.613281 38.59375 C 15.308594 38.59375 15.996094 38.523438 16.679688 38.390625 C 17.359375 38.253906 18.019531 38.054688 18.664062 37.785156 C 19.304688 37.519531 19.914062 37.195312 20.492188 36.808594 C 21.070312 36.421875 21.605469 35.984375 22.097656 35.492188 C 22.589844 35 23.027344 34.464844 23.414062 33.890625 C 23.800781 33.3125 24.125 32.703125 24.390625 32.058594 C 24.65625 31.417969 24.859375 30.753906 24.992188 30.074219 C 25.128906 29.390625 25.195312 28.703125 25.195312 28.007812 L 25.195312 10.125 L 24.632812 9.5625 L 24.632812 28.007812 C 24.636719 29.339844 24.382812 30.617188 23.875 31.84375 C 23.363281 33.074219 22.640625 34.15625 21.695312 35.09375 Z M 20.695312 34.09375 C 19.890625 34.902344 18.960938 35.527344 17.902344 35.964844 C 16.847656 36.398438 15.746094 36.617188 14.605469 36.613281 L 14.609375 37.179688 C 15.214844 37.179688 15.808594 37.121094 16.402344 37.003906 C 16.992188 36.886719 17.566406 36.714844 18.121094 36.484375 C 18.679688 36.253906 19.207031 35.96875 19.707031 35.636719 C 20.210938 35.300781 20.671875 34.921875 21.097656 34.496094 C 21.523438 34.066406 21.90625 33.605469 22.238281 33.105469 C 22.574219 32.601562 22.855469 32.074219 23.085938 31.519531 C 23.316406 30.960938 23.492188 30.386719 23.609375 29.796875 C 23.726562 29.207031 23.785156 28.609375 23.785156 28.007812 L 23.785156 8.714844 L 23.222656 8.152344 L 23.222656 28.011719 C 23.226562 29.152344 23.007812 30.25 22.570312 31.304688 C 22.132812 32.359375 21.511719 33.292969 20.699219 34.097656 Z M 14.613281 35.210938 L 14.613281 35.773438 C 15.121094 35.773438 15.625 35.722656 16.125 35.621094 C 16.625 35.523438 17.109375 35.375 17.582031 35.179688 C 18.050781 34.984375 18.5 34.742188 18.921875 34.460938 C 19.34375 34.175781 19.738281 33.855469 20.097656 33.496094 C 20.457031 33.136719 20.78125 32.742188 21.0625 32.320312 C 21.347656 31.894531 21.585938 31.449219 21.78125 30.980469 C 21.976562 30.507812 22.125 30.023438 22.222656 29.523438 C 22.324219 29.023438 22.375 28.519531 22.375 28.007812 L 22.375 7.3125 L 21.8125 6.746094 L 21.8125 28.007812 C 21.8125 28.480469 21.765625 28.949219 21.675781 29.414062 C 21.582031 29.875 21.445312 30.324219 21.265625 30.761719 C 21.082031 31.199219 20.859375 31.613281 20.597656 32.007812 C 20.335938 32.402344 20.035156 32.765625 19.703125 33.097656 C 19.367188 33.433594 19.003906 33.730469 18.613281 33.996094 C 18.21875 34.257812 17.804688 34.480469 17.367188 34.660156 C 16.929688 34.839844 16.480469 34.976562 16.015625 35.070312 C 15.550781 35.164062 15.085938 35.210938 14.613281 35.210938 Z M 14.613281 35.210938 " clip-rule="nonzero"/></clipPath><linearGradient x1="-50.472188" gradientTransform="matrix(-0.0525349, -0.0525349, 0.0525349, -0.0525349, 17.094867, 42.482874)" y1="-13.51798" x2="370.332742" gradientUnits="userSpaceOnUse" y2="498.60137" id="5a7f00fe6b"><stop stop-opacity="1" stop-color="rgb(0%, 18.798828%, 100%)" offset="0"/><stop stop-opacity="1" stop-color="rgb(0%, 18.798828%, 100%)" offset="0.25"/><stop stop-opacity="1" stop-color="rgb(0%, 18.798828%, 100%)" offset="0.3125"/><stop stop-opacity="1" stop-color="rgb(0%, 18.798828%, 100%)" offset="0.320312"/><stop stop-opacity="1" stop-color="rgb(0%, 19.113159%, 100%)" offset="0.324219"/><stop stop-opacity="1" stop-color="rgb(0%, 19.42749%, 100%)" offset="0.328125"/><stop stop-opacity="1" stop-color="rgb(0%, 19.978333%, 100%)" offset="0.332031"/><stop stop-opacity="1" stop-color="rgb(0%, 20.530701%, 100%)" offset="0.335938"/><stop stop-opacity="1" stop-color="rgb(0%, 21.081543%, 100%)" offset="0.339844"/><stop stop-opacity="1" stop-color="rgb(0%, 21.633911%, 100%)" offset="0.34375"/><stop stop-opacity="1" stop-color="rgb(0%, 22.184753%, 100%)" offset="0.347656"/><stop stop-opacity="1" stop-color="rgb(0%, 22.735596%, 100%)" offset="0.351562"/><stop stop-opacity="1" stop-color="rgb(0%, 23.286438%, 100%)" offset="0.355469"/><stop stop-opacity="1" stop-color="rgb(0%, 23.838806%, 100%)" offset="0.359375"/><stop stop-opacity="1" stop-color="rgb(0%, 24.389648%, 100%)" offset="0.363281"/><stop stop-opacity="1" stop-color="rgb(0%, 24.942017%, 100%)" offset="0.367188"/><stop stop-opacity="1" stop-color="rgb(0%, 25.492859%, 100%)" offset="0.371094"/><stop stop-opacity="1" stop-color="rgb(0%, 26.043701%, 100%)" offset="0.375"/><stop stop-opacity="1" stop-color="rgb(0%, 26.594543%, 100%)" offset="0.378906"/><stop stop-opacity="1" stop-color="rgb(0%, 27.146912%, 100%)" offset="0.382812"/><stop stop-opacity="1" stop-color="rgb(0%, 27.697754%, 100%)" offset="0.386719"/><stop stop-opacity="1" stop-color="rgb(0%, 28.250122%, 100%)" offset="0.390625"/><stop stop-opacity="1" stop-color="rgb(0%, 28.800964%, 100%)" offset="0.394531"/><stop stop-opacity="1" stop-color="rgb(0%, 29.351807%, 100%)" offset="0.398438"/><stop stop-opacity="1" stop-color="rgb(0%, 29.902649%, 100%)" offset="0.402344"/><stop stop-opacity="1" stop-color="rgb(0%, 30.455017%, 100%)" offset="0.40625"/><stop stop-opacity="1" stop-color="rgb(0%, 31.005859%, 100%)" offset="0.410156"/><stop stop-opacity="1" stop-color="rgb(0%, 31.558228%, 100%)" offset="0.414062"/><stop stop-opacity="1" stop-color="rgb(0%, 32.10907%, 100%)" offset="0.417969"/><stop stop-opacity="1" stop-color="rgb(0%, 32.659912%, 100%)" offset="0.421875"/><stop stop-opacity="1" stop-color="rgb(0%, 33.210754%, 100%)" offset="0.425781"/><stop stop-opacity="1" stop-color="rgb(0%, 33.763123%, 100%)" offset="0.429688"/><stop stop-opacity="1" stop-color="rgb(0%, 34.313965%, 100%)" offset="0.433594"/><stop stop-opacity="1" stop-color="rgb(0%, 34.866333%, 100%)" offset="0.4375"/><stop stop-opacity="1" stop-color="rgb(0%, 35.417175%, 100%)" offset="0.441406"/><stop stop-opacity="1" stop-color="rgb(0%, 35.968018%, 100%)" offset="0.445312"/><stop stop-opacity="1" stop-color="rgb(0%, 36.51886%, 100%)" offset="0.449219"/><stop stop-opacity="1" stop-color="rgb(0%, 37.071228%, 100%)" offset="0.453125"/><stop stop-opacity="1" stop-color="rgb(0%, 37.62207%, 100%)" offset="0.457031"/><stop stop-opacity="1" stop-color="rgb(0%, 38.174438%, 100%)" offset="0.460937"/><stop stop-opacity="1" stop-color="rgb(0%, 38.725281%, 100%)" offset="0.464844"/><stop stop-opacity="1" stop-color="rgb(0%, 39.276123%, 100%)" offset="0.46875"/><stop stop-opacity="1" stop-color="rgb(0%, 39.826965%, 100%)" offset="0.472656"/><stop stop-opacity="1" stop-color="rgb(0%, 40.379333%, 100%)" offset="0.476562"/><stop stop-opacity="1" stop-color="rgb(0%, 40.930176%, 100%)" offset="0.480469"/><stop stop-opacity="1" stop-color="rgb(0%, 41.482544%, 100%)" offset="0.484375"/><stop stop-opacity="1" stop-color="rgb(0%, 42.033386%, 100%)" offset="0.488281"/><stop stop-opacity="1" stop-color="rgb(0%, 42.584229%, 100%)" offset="0.492188"/><stop stop-opacity="1" stop-color="rgb(0%, 43.135071%, 100%)" offset="0.496094"/><stop stop-opacity="1" stop-color="rgb(0%, 43.687439%, 100%)" offset="0.5"/><stop stop-opacity="1" stop-color="rgb(0%, 44.238281%, 100%)" offset="0.503906"/><stop stop-opacity="1" stop-color="rgb(0%, 44.790649%, 100%)" offset="0.507812"/><stop stop-opacity="1" stop-color="rgb(0%, 45.341492%, 100%)" offset="0.511719"/><stop stop-opacity="1" stop-color="rgb(0%, 45.892334%, 100%)" offset="0.515625"/><stop stop-opacity="1" stop-color="rgb(0%, 46.443176%, 100%)" offset="0.519531"/><stop stop-opacity="1" stop-color="rgb(0%, 46.995544%, 100%)" offset="0.523438"/><stop stop-opacity="1" stop-color="rgb(0%, 47.546387%, 100%)" offset="0.527344"/><stop stop-opacity="1" stop-color="rgb(0%, 48.098755%, 100%)" offset="0.53125"/><stop stop-opacity="1" stop-color="rgb(0%, 48.649597%, 100%)" offset="0.535156"/><stop stop-opacity="1" stop-color="rgb(0%, 49.200439%, 100%)" offset="0.539062"/><stop stop-opacity="1" stop-color="rgb(0%, 49.751282%, 100%)" offset="0.542969"/><stop stop-opacity="1" stop-color="rgb(0%, 50.30365%, 100%)" offset="0.546875"/><stop stop-opacity="1" stop-color="rgb(0%, 50.854492%, 100%)" offset="0.550781"/><stop stop-opacity="1" stop-color="rgb(0%, 51.40686%, 100%)" offset="0.554688"/><stop stop-opacity="1" stop-color="rgb(0%, 51.957703%, 100%)" offset="0.558594"/><stop stop-opacity="1" stop-color="rgb(0%, 52.508545%, 100%)" offset="0.5625"/><stop stop-opacity="1" stop-color="rgb(0%, 53.059387%, 100%)" offset="0.566406"/><stop stop-opacity="1" stop-color="rgb(0%, 53.611755%, 100%)" offset="0.570312"/><stop stop-opacity="1" stop-color="rgb(0%, 54.162598%, 100%)" offset="0.574219"/><stop stop-opacity="1" stop-color="rgb(0%, 54.714966%, 100%)" offset="0.578125"/><stop stop-opacity="1" stop-color="rgb(0%, 55.265808%, 100%)" offset="0.582031"/><stop stop-opacity="1" stop-color="rgb(0%, 55.81665%, 100%)" offset="0.585938"/><stop stop-opacity="1" stop-color="rgb(0%, 56.367493%, 100%)" offset="0.589844"/><stop stop-opacity="1" stop-color="rgb(0%, 56.919861%, 100%)" offset="0.59375"/><stop stop-opacity="1" stop-color="rgb(0%, 57.470703%, 100%)" offset="0.597656"/><stop stop-opacity="1" stop-color="rgb(0%, 58.023071%, 100%)" offset="0.601563"/><stop stop-opacity="1" stop-color="rgb(0%, 58.573914%, 100%)" offset="0.605469"/><stop stop-opacity="1" stop-color="rgb(0%, 59.126282%, 100%)" offset="0.609375"/><stop stop-opacity="1" stop-color="rgb(0%, 59.677124%, 100%)" offset="0.613281"/><stop stop-opacity="1" stop-color="rgb(0%, 60.227966%, 100%)" offset="0.617188"/><stop stop-opacity="1" stop-color="rgb(0%, 60.778809%, 100%)" offset="0.621094"/><stop stop-opacity="1" stop-color="rgb(0%, 61.331177%, 100%)" offset="0.625"/><stop stop-opacity="1" stop-color="rgb(0%, 61.882019%, 100%)" offset="0.628906"/><stop stop-opacity="1" stop-color="rgb(0%, 62.434387%, 100%)" offset="0.632812"/><stop stop-opacity="1" stop-color="rgb(0%, 62.985229%, 100%)" offset="0.636719"/><stop stop-opacity="1" stop-color="rgb(0%, 63.536072%, 100%)" offset="0.640625"/><stop stop-opacity="1" stop-color="rgb(0%, 64.086914%, 100%)" offset="0.644531"/><stop stop-opacity="1" stop-color="rgb(0%, 64.639282%, 100%)" offset="0.648438"/><stop stop-opacity="1" stop-color="rgb(0%, 65.190125%, 100%)" offset="0.652344"/><stop stop-opacity="1" stop-color="rgb(0%, 65.742493%, 100%)" offset="0.65625"/><stop stop-opacity="1" stop-color="rgb(0%, 66.293335%, 100%)" offset="0.660156"/><stop stop-opacity="1" stop-color="rgb(0%, 66.844177%, 100%)" offset="0.664062"/><stop stop-opacity="1" stop-color="rgb(0%, 67.39502%, 100%)" offset="0.667969"/><stop stop-opacity="1" stop-color="rgb(0%, 67.947388%, 100%)" offset="0.671875"/><stop stop-opacity="1" stop-color="rgb(0%, 68.49823%, 100%)" offset="0.675781"/><stop stop-opacity="1" stop-color="rgb(0%, 69.050598%, 100%)" offset="0.679688"/><stop stop-opacity="1" stop-color="rgb(0%, 69.60144%, 100%)" offset="0.683594"/><stop stop-opacity="1" stop-color="rgb(0%, 70.152283%, 100%)" offset="0.6875"/><stop stop-opacity="1" stop-color="rgb(0%, 70.703125%, 100%)" offset="0.691406"/><stop stop-opacity="1" stop-color="rgb(0%, 71.255493%, 100%)" offset="0.695312"/><stop stop-opacity="1" stop-color="rgb(0%, 71.806335%, 100%)" offset="0.699219"/><stop stop-opacity="1" stop-color="rgb(0%, 72.358704%, 100%)" offset="0.703125"/><stop stop-opacity="1" stop-color="rgb(0%, 72.909546%, 100%)" offset="0.707031"/><stop stop-opacity="1" stop-color="rgb(0%, 73.460388%, 100%)" offset="0.710938"/><stop stop-opacity="1" stop-color="rgb(0%, 74.01123%, 100%)" offset="0.714844"/><stop stop-opacity="1" stop-color="rgb(0%, 74.563599%, 100%)" offset="0.71875"/><stop stop-opacity="1" stop-color="rgb(0%, 75.114441%, 100%)" offset="0.722656"/><stop stop-opacity="1" stop-color="rgb(0%, 75.666809%, 100%)" offset="0.726562"/><stop stop-opacity="1" stop-color="rgb(0%, 75.881958%, 100%)" offset="0.730469"/><stop stop-opacity="1" stop-color="rgb(0%, 76.098633%, 100%)" offset="0.734375"/><stop stop-opacity="1" stop-color="rgb(0%, 76.098633%, 100%)" offset="0.75"/><stop stop-opacity="1" stop-color="rgb(0%, 76.098633%, 100%)" offset="1"/></linearGradient></defs><g clip-path="url(#79570a12f5)"><g clip-path="url(#dcbeb55c93)"><g clip-path="url(#bb6be543f5)"><g clip-path="url(#803cbaab9f)"><path fill="url(#0ca060dee1)" d="M 2.667969 15.976562 L 2.667969 40 L 17.867188 40 L 17.867188 15.976562 Z M 2.667969 15.976562 " fill-rule="nonzero"/></g></g></g></g><g clip-path="url(#26b3802e73)"><g clip-path="url(#e2a9ad9bc7)"><g clip-path="url(#79af75f328)"><g clip-path="url(#d97e8e0416)"><path fill="url(#dc759c151d)" d="M 25.996094 15.949219 L 25.996094 25.007812 L 38.765625 25.007812 L 38.765625 15.949219 Z M 25.996094 15.949219 " fill-rule="nonzero"/></g></g></g></g><g clip-path="url(#d35ed081e5)"><g clip-path="url(#941152e4f1)"><g clip-path="url(#0dcd2c3f86)"><g clip-path="url(#957cfaa12c)"><path fill="url(#5a7f00fe6b)" d="M 20.605469 46 L 45.34375 21.257812 L 20.605469 -3.484375 L -4.136719 21.257812 Z M 20.605469 46 " fill-rule="nonzero"/></g></g></g></g><g fill="#ffffff" fill-opacity="1"><g transform="translate(39.56232, 22.913045)"><g><path d="M 2.609375 0 L 4.703125 0 L 4.703125 -6.03125 L 7.171875 -6.03125 L 7.171875 -7.75 L 0.140625 -7.75 L 0.140625 -6.03125 L 2.609375 -6.03125 Z M 2.609375 0 "/></g></g></g><g fill="#ffffff" fill-opacity="1"><g transform="translate(46.883854, 22.913045)"><g><path d="M 0.609375 0 L 2.625 0 L 2.625 -4.875 L 2.71875 -4.875 L 4.5625 0 L 6.1875 0 L 8.03125 -4.890625 L 8.125 -4.890625 L 8.125 0 L 10.140625 0 L 10.140625 -7.75 L 7.359375 -7.75 L 5.421875 -2.453125 L 5.328125 -2.453125 L 3.34375 -7.75 L 0.609375 -7.75 Z M 0.609375 0 "/></g></g></g><g fill="#ffffff" fill-opacity="1"><g transform="translate(57.643797, 22.913045)"><g><path d="M 4.65625 0.1875 C 7.28125 0.1875 9 -1.65625 8.78125 -4.34375 L 3.921875 -4.34375 L 3.921875 -3.15625 L 6.78125 -3.15625 C 6.6875 -2.203125 5.828125 -1.515625 4.734375 -1.515625 C 3.40625 -1.515625 2.4375 -2.5 2.4375 -3.875 C 2.4375 -5.25 3.375 -6.1875 4.65625 -6.1875 C 5.546875 -6.1875 6.328125 -5.6875 6.5 -4.96875 L 8.4375 -5.296875 C 8.109375 -6.8125 6.546875 -7.90625 4.65625 -7.90625 C 2.15625 -7.90625 0.34375 -6.28125 0.34375 -3.875 C 0.34375 -1.46875 2.15625 0.1875 4.65625 0.1875 Z M 4.65625 0.1875 "/></g></g></g><g fill="#00c2ff" fill-opacity="1"><g transform="translate(41.754385, 29.760496)"><g><path d="M 1.171875 0.0625 C 1.78125 0.0625 2.171875 -0.21875 2.171875 -0.65625 C 2.171875 -1.1875 1.65625 -1.265625 1.25 -1.328125 C 0.921875 -1.375 0.609375 -1.4375 0.609375 -1.703125 C 0.609375 -1.9375 0.8125 -2.09375 1.15625 -2.09375 C 1.5 -2.09375 1.71875 -1.921875 1.71875 -1.609375 L 2.109375 -1.609375 C 2.109375 -2.09375 1.71875 -2.40625 1.140625 -2.40625 C 0.5625 -2.40625 0.1875 -2.125 0.1875 -1.6875 C 0.1875 -1.140625 0.71875 -1.078125 1.140625 -1.015625 C 1.453125 -0.96875 1.75 -0.921875 1.75 -0.640625 C 1.75 -0.40625 1.53125 -0.25 1.1875 -0.25 C 0.796875 -0.25 0.5625 -0.4375 0.5625 -0.765625 L 0.171875 -0.765625 C 0.171875 -0.265625 0.5625 0.0625 1.171875 0.0625 Z M 1.171875 0.0625 "/></g></g></g><g fill="#00c2ff" fill-opacity="1"><g transform="translate(44.789581, 29.760496)"><g><path d="M 1.421875 0.0625 C 2.171875 0.0625 2.703125 -0.4375 2.703125 -1.171875 C 2.703125 -1.90625 2.171875 -2.40625 1.421875 -2.40625 C 0.671875 -2.40625 0.140625 -1.90625 0.140625 -1.171875 C 0.140625 -0.4375 0.671875 0.0625 1.421875 0.0625 Z M 1.421875 -0.28125 C 0.921875 -0.28125 0.5625 -0.65625 0.5625 -1.171875 C 0.5625 -1.703125 0.921875 -2.0625 1.421875 -2.0625 C 1.9375 -2.0625 2.28125 -1.703125 2.28125 -1.171875 C 2.28125 -0.65625 1.9375 -0.28125 1.421875 -0.28125 Z M 1.421875 -0.28125 "/></g></g></g><g fill="#00c2ff" fill-opacity="1"><g transform="translate(48.337256, 29.760496)"><g><path d="M 0.234375 0 L 1.828125 0 L 1.828125 -0.359375 L 0.65625 -0.359375 L 0.65625 -2.34375 L 0.234375 -2.34375 Z M 0.234375 0 "/></g></g></g><g fill="#00c2ff" fill-opacity="1"><g transform="translate(50.945935, 29.760496)"><g><path d="M 1.21875 0.0625 C 1.8125 0.0625 2.21875 -0.328125 2.21875 -0.953125 L 2.21875 -2.34375 L 1.796875 -2.34375 L 1.796875 -0.96875 C 1.796875 -0.546875 1.578125 -0.28125 1.21875 -0.28125 C 0.859375 -0.28125 0.625 -0.546875 0.625 -0.96875 L 0.625 -2.34375 L 0.21875 -2.34375 L 0.21875 -0.953125 C 0.21875 -0.328125 0.609375 0.0625 1.21875 0.0625 Z M 1.21875 0.0625 "/></g></g></g><g fill="#00c2ff" fill-opacity="1"><g transform="translate(54.073706, 29.760496)"><g><path d="M 1.46875 0.78125 C 1.6875 0.78125 1.828125 0.65625 1.828125 0.46875 C 1.828125 0.296875 1.6875 0.171875 1.484375 0.171875 L 1.484375 0.0625 C 2.046875 0.03125 2.484375 -0.328125 2.5625 -0.8125 L 2.171875 -0.859375 C 2.109375 -0.53125 1.78125 -0.28125 1.40625 -0.28125 C 0.90625 -0.28125 0.5625 -0.65625 0.5625 -1.171875 C 0.5625 -1.703125 0.90625 -2.0625 1.40625 -2.0625 C 1.78125 -2.0625 2.09375 -1.8125 2.171875 -1.46875 L 2.5625 -1.515625 C 2.484375 -2.03125 2 -2.40625 1.390625 -2.40625 C 0.671875 -2.40625 0.140625 -1.90625 0.140625 -1.171875 C 0.140625 -0.484375 0.625 0.015625 1.296875 0.0625 L 1.265625 0.28125 L 1.40625 0.28125 C 1.546875 0.28125 1.640625 0.359375 1.640625 0.453125 C 1.640625 0.546875 1.5625 0.609375 1.453125 0.609375 C 1.359375 0.609375 1.28125 0.546875 1.25 0.453125 L 1.09375 0.515625 C 1.125 0.671875 1.28125 0.78125 1.46875 0.78125 Z M 1.46875 0.78125 "/></g></g></g><g fill="#00c2ff" fill-opacity="1"><g transform="translate(57.479209, 29.760496)"><g><path d="M 1.640625 -2.609375 C 1.8125 -2.609375 1.9375 -2.703125 2.03125 -2.84375 L 1.859375 -2.953125 C 1.828125 -2.875 1.75 -2.8125 1.640625 -2.8125 C 1.484375 -2.8125 1.40625 -2.984375 1.1875 -2.984375 C 1.03125 -2.984375 0.890625 -2.90625 0.8125 -2.765625 L 0.984375 -2.640625 C 1.03125 -2.71875 1.109375 -2.765625 1.203125 -2.765625 C 1.34375 -2.765625 1.421875 -2.609375 1.640625 -2.609375 Z M 1.421875 0.0625 C 2.171875 0.0625 2.703125 -0.4375 2.703125 -1.171875 C 2.703125 -1.90625 2.171875 -2.40625 1.421875 -2.40625 C 0.671875 -2.40625 0.140625 -1.90625 0.140625 -1.171875 C 0.140625 -0.4375 0.671875 0.0625 1.421875 0.0625 Z M 1.421875 -0.28125 C 0.921875 -0.28125 0.5625 -0.65625 0.5625 -1.171875 C 0.5625 -1.703125 0.921875 -2.0625 1.421875 -2.0625 C 1.9375 -2.0625 2.28125 -1.703125 2.28125 -1.171875 C 2.28125 -0.65625 1.9375 -0.28125 1.421875 -0.28125 Z M 1.421875 -0.28125 "/></g></g></g><g fill="#00c2ff" fill-opacity="1"><g transform="translate(61.026886, 29.760496)"><g><path d="M 0.234375 0 L 1.96875 0 L 1.96875 -0.34375 L 0.640625 -0.34375 L 0.640625 -1.0625 L 1.84375 -1.0625 L 1.84375 -1.34375 L 0.640625 -1.34375 L 0.640625 -2.015625 L 1.9375 -2.015625 L 1.9375 -2.34375 L 0.234375 -2.34375 Z M 0.234375 0 "/></g></g></g><g fill="#00c2ff" fill-opacity="1"><g transform="translate(63.827333, 29.760496)"><g><path d="M 1.171875 0.0625 C 1.78125 0.0625 2.171875 -0.21875 2.171875 -0.65625 C 2.171875 -1.1875 1.65625 -1.265625 1.25 -1.328125 C 0.921875 -1.375 0.609375 -1.4375 0.609375 -1.703125 C 0.609375 -1.9375 0.8125 -2.09375 1.15625 -2.09375 C 1.5 -2.09375 1.71875 -1.921875 1.71875 -1.609375 L 2.109375 -1.609375 C 2.109375 -2.09375 1.71875 -2.40625 1.140625 -2.40625 C 0.5625 -2.40625 0.1875 -2.125 0.1875 -1.6875 C 0.1875 -1.140625 0.71875 -1.078125 1.140625 -1.015625 C 1.453125 -0.96875 1.75 -0.921875 1.75 -0.640625 C 1.75 -0.40625 1.53125 -0.25 1.1875 -0.25 C 0.796875 -0.25 0.5625 -0.4375 0.5625 -0.765625 L 0.171875 -0.765625 C 0.171875 -0.265625 0.5625 0.0625 1.171875 0.0625 Z M 1.171875 0.0625 "/></g></g></g><g fill="#00c2ff" fill-opacity="1"><g transform="translate(44.165225, 34.168889)"><g/></g></g><g fill="#00c2ff" fill-opacity="1"><g transform="translate(45.68061, 34.168889)"><g><path d="M 0.234375 0 L 1.078125 0 C 1.859375 0 2.375 -0.453125 2.375 -1.171875 C 2.375 -1.890625 1.859375 -2.34375 1.078125 -2.34375 L 0.234375 -2.34375 Z M 0.640625 -0.328125 L 0.640625 -2.03125 L 1.078125 -2.03125 C 1.59375 -2.03125 1.953125 -1.703125 1.953125 -1.171875 C 1.953125 -0.640625 1.609375 -0.328125 1.078125 -0.328125 Z M 0.640625 -0.328125 "/></g></g></g><g fill="#00c2ff" fill-opacity="1"><g transform="translate(48.894349, 34.168889)"><g><path d="M 0.234375 0 L 0.65625 0 L 0.65625 -2.34375 L 0.234375 -2.34375 Z M 0.234375 0 "/></g></g></g><g fill="#00c2ff" fill-opacity="1"><g transform="translate(50.487989, 34.168889)"><g><path d="M 1.421875 0.0625 C 2.1875 0.0625 2.703125 -0.484375 2.65625 -1.265625 L 1.171875 -1.265625 L 1.171875 -1 L 2.25 -1 C 2.21875 -0.578125 1.890625 -0.28125 1.4375 -0.28125 C 0.9375 -0.28125 0.5625 -0.65625 0.5625 -1.171875 C 0.5625 -1.6875 0.921875 -2.0625 1.421875 -2.0625 C 1.78125 -2.0625 2.09375 -1.84375 2.15625 -1.546875 L 2.546875 -1.609375 C 2.453125 -2.078125 1.984375 -2.40625 1.421875 -2.40625 C 0.6875 -2.40625 0.140625 -1.90625 0.140625 -1.171875 C 0.140625 -0.453125 0.6875 0.0625 1.421875 0.0625 Z M 1.421875 0.0625 "/></g></g></g><g fill="#00c2ff" fill-opacity="1"><g transform="translate(53.989377, 34.168889)"><g><path d="M 0.828125 0 L 1.25 0 L 1.25 -2 L 2.03125 -2 L 2.03125 -2.34375 L 0.046875 -2.34375 L 0.046875 -2 L 0.828125 -2 Z M 0.828125 0 "/></g></g></g><g fill="#00c2ff" fill-opacity="1"><g transform="translate(56.773293, 34.168889)"><g><path d="M 0.046875 0 L 0.484375 0 L 0.65625 -0.484375 L 1.703125 -0.484375 L 1.875 0 L 2.3125 0 L 1.484375 -2.34375 L 0.875 -2.34375 Z M 0.75 -0.796875 L 1.15625 -1.984375 L 1.1875 -1.984375 L 1.609375 -0.796875 Z M 0.75 -0.796875 "/></g></g></g><g fill="#00c2ff" fill-opacity="1"><g transform="translate(59.825019, 34.168889)"><g><path d="M 0.234375 0 L 0.65625 0 L 0.65625 -2.34375 L 0.234375 -2.34375 Z M 0.234375 0 "/></g></g></g><g fill="#00c2ff" fill-opacity="1"><g transform="translate(61.418659, 34.168889)"><g><path d="M 1.171875 0.0625 C 1.78125 0.0625 2.171875 -0.21875 2.171875 -0.65625 C 2.171875 -1.1875 1.65625 -1.265625 1.25 -1.328125 C 0.921875 -1.375 0.609375 -1.4375 0.609375 -1.703125 C 0.609375 -1.9375 0.8125 -2.09375 1.15625 -2.09375 C 1.5 -2.09375 1.71875 -1.921875 1.71875 -1.609375 L 2.109375 -1.609375 C 2.109375 -2.09375 1.71875 -2.40625 1.140625 -2.40625 C 0.5625 -2.40625 0.1875 -2.125 0.1875 -1.6875 C 0.1875 -1.140625 0.71875 -1.078125 1.140625 -1.015625 C 1.453125 -0.96875 1.75 -0.921875 1.75 -0.640625 C 1.75 -0.40625 1.53125 -0.25 1.1875 -0.25 C 0.796875 -0.25 0.5625 -0.4375 0.5625 -0.765625 L 0.171875 -0.765625 C 0.171875 -0.265625 0.5625 0.0625 1.171875 0.0625 Z M 1.171875 0.0625 "/></g></g></g></svg>