<svg xmlns="http://www.w3.org/2000/svg" xmlns:xlink="http://www.w3.org/1999/xlink" width="500" zoomAndPan="magnify" viewBox="0 0 375 374.999991" height="500" preserveAspectRatio="xMidYMid meet" version="1.0"><defs><g/><clipPath id="66c5704f6b"><path d="M 157.214844 132 L 178 132 L 178 162 L 157.214844 162 Z M 157.214844 132 " clip-rule="nonzero"/></clipPath><clipPath id="22ed686264"><path d="M 157.214844 131 L 179 131 L 179 163 L 157.214844 163 Z M 157.214844 131 " clip-rule="nonzero"/></clipPath><clipPath id="18810a9476"><path d="M 197 132 L 217.964844 132 L 217.964844 162 L 197 162 Z M 197 132 " clip-rule="nonzero"/></clipPath><clipPath id="1e0325e20c"><path d="M 196 131 L 217.964844 131 L 217.964844 163 L 196 163 Z M 196 131 " clip-rule="nonzero"/></clipPath><clipPath id="b7b3d388e8"><path d="M 176 123.375 L 198 123.375 L 198 170.625 L 176 170.625 Z M 176 123.375 " clip-rule="nonzero"/></clipPath></defs><rect x="-37.5" width="450" fill="#ffffff" y="-37.499999" height="449.999989" fill-opacity="1"/><rect x="-37.5" width="450" fill="#191919" y="-37.499999" height="449.999989" fill-opacity="1"/><g clip-path="url(#66c5704f6b)"><path fill="#03fa6e" d="M 176.320312 161.707031 C 175.988281 161.707031 175.65625 161.59375 175.394531 161.386719 L 158.457031 148.058594 C 158.09375 147.773438 157.882812 147.34375 157.882812 146.882812 C 157.882812 146.417969 158.09375 145.988281 158.457031 145.703125 L 175.394531 132.378906 C 175.65625 132.167969 175.988281 132.058594 176.320312 132.058594 C 176.785156 132.058594 177.214844 132.261719 177.5 132.628906 C 177.746094 132.941406 177.859375 133.335938 177.8125 133.734375 C 177.765625 134.132812 177.5625 134.488281 177.25 134.734375 L 161.8125 146.882812 L 177.25 159.027344 C 177.5625 159.277344 177.765625 159.632812 177.8125 160.027344 C 177.859375 160.425781 177.746094 160.816406 177.5 161.136719 C 177.214844 161.496094 176.785156 161.707031 176.320312 161.707031 " fill-opacity="1" fill-rule="nonzero"/></g><g clip-path="url(#22ed686264)"><path fill="#2a446b" d="M 176.320312 131.417969 C 175.84375 131.417969 175.375 131.578125 175 131.875 L 158.0625 145.199219 C 157.542969 145.613281 157.246094 146.222656 157.246094 146.882812 C 157.246094 147.542969 157.542969 148.15625 158.0625 148.5625 L 175 161.886719 C 175.375 162.183594 175.84375 162.347656 176.320312 162.347656 C 176.984375 162.347656 177.597656 162.046875 178.003906 161.527344 C 178.359375 161.082031 178.511719 160.523438 178.445312 159.953125 C 178.378906 159.386719 178.09375 158.878906 177.644531 158.527344 L 162.84375 146.882812 L 177.644531 135.238281 C 178.09375 134.882812 178.378906 134.375 178.445312 133.808594 C 178.511719 133.242188 178.359375 132.683594 178.003906 132.234375 C 177.597656 131.714844 176.980469 131.417969 176.320312 131.417969 Z M 176.320312 132.695312 C 176.578125 132.695312 176.828125 132.808594 177 133.023438 C 177.292969 133.398438 177.226562 133.941406 176.855469 134.234375 L 160.777344 146.882812 L 176.855469 159.53125 C 177.226562 159.824219 177.292969 160.367188 177 160.738281 C 176.828125 160.957031 176.578125 161.070312 176.320312 161.070312 C 176.132812 161.070312 175.949219 161.007812 175.789062 160.882812 L 158.851562 147.558594 C 158.644531 147.394531 158.523438 147.144531 158.523438 146.882812 C 158.523438 146.617188 158.644531 146.367188 158.851562 146.203125 L 175.789062 132.878906 C 175.945312 132.753906 176.132812 132.695312 176.320312 132.695312 " fill-opacity="1" fill-rule="nonzero"/></g><g clip-path="url(#18810a9476)"><path fill="#03fa6e" d="M 198.667969 161.707031 C 198.207031 161.707031 197.777344 161.496094 197.488281 161.136719 C 196.976562 160.484375 197.089844 159.539062 197.742188 159.027344 L 213.179688 146.882812 L 197.742188 134.734375 C 197.089844 134.222656 196.976562 133.277344 197.488281 132.628906 C 197.777344 132.261719 198.207031 132.058594 198.667969 132.058594 C 199.003906 132.058594 199.332031 132.167969 199.597656 132.378906 L 216.535156 145.703125 C 216.898438 145.988281 217.105469 146.417969 217.105469 146.882812 C 217.105469 147.34375 216.898438 147.773438 216.53125 148.058594 L 199.597656 161.386719 C 199.332031 161.59375 199.003906 161.707031 198.667969 161.707031 " fill-opacity="1" fill-rule="nonzero"/></g><g clip-path="url(#1e0325e20c)"><path fill="#2a446b" d="M 198.667969 131.417969 C 198.007812 131.417969 197.394531 131.714844 196.988281 132.234375 C 196.257812 133.160156 196.417969 134.507812 197.34375 135.238281 L 212.144531 146.882812 L 197.34375 158.527344 C 196.417969 159.253906 196.257812 160.601562 196.988281 161.527344 C 197.394531 162.046875 198.007812 162.347656 198.667969 162.347656 C 199.148438 162.347656 199.613281 162.183594 199.988281 161.886719 L 216.929688 148.5625 C 217.445312 148.15625 217.742188 147.542969 217.742188 146.882812 C 217.742188 146.222656 217.445312 145.613281 216.929688 145.199219 L 199.992188 131.875 C 199.617188 131.578125 199.148438 131.417969 198.667969 131.417969 Z M 198.667969 132.695312 C 198.855469 132.695312 199.042969 132.753906 199.199219 132.878906 L 216.140625 146.203125 C 216.347656 146.367188 216.464844 146.617188 216.464844 146.882812 C 216.464844 147.144531 216.347656 147.394531 216.140625 147.558594 L 199.199219 160.882812 C 199.042969 161.007812 198.855469 161.070312 198.667969 161.070312 C 198.414062 161.070312 198.160156 160.957031 197.992188 160.738281 C 197.699219 160.367188 197.761719 159.824219 198.136719 159.53125 L 214.210938 146.882812 L 198.136719 134.234375 C 197.761719 133.941406 197.699219 133.398438 197.992188 133.023438 C 198.160156 132.808594 198.414062 132.695312 198.667969 132.695312 " fill-opacity="1" fill-rule="nonzero"/></g><path fill="#03fa6e" d="M 179.078125 169.75 C 178.890625 169.75 178.710938 169.710938 178.535156 169.644531 C 178.164062 169.5 177.867188 169.21875 177.707031 168.855469 C 177.542969 168.484375 177.535156 168.078125 177.679688 167.707031 L 194.21875 124.972656 C 194.441406 124.402344 195.003906 124.015625 195.617188 124.015625 C 195.804688 124.015625 195.988281 124.050781 196.164062 124.117188 C 196.929688 124.417969 197.316406 125.289062 197.019531 126.058594 L 180.476562 168.789062 C 180.257812 169.363281 179.691406 169.75 179.078125 169.75 " fill-opacity="1" fill-rule="nonzero"/><g clip-path="url(#b7b3d388e8)"><path fill="#2a446b" d="M 195.617188 123.375 C 194.742188 123.375 193.9375 123.929688 193.625 124.742188 L 177.082031 167.472656 C 176.878906 168.007812 176.890625 168.589844 177.121094 169.113281 C 177.351562 169.632812 177.773438 170.035156 178.304688 170.242188 C 178.554688 170.339844 178.8125 170.386719 179.078125 170.386719 C 179.953125 170.386719 180.757812 169.835938 181.074219 169.019531 L 197.613281 126.289062 C 198.039062 125.1875 197.492188 123.945312 196.390625 123.523438 C 196.144531 123.425781 195.882812 123.375 195.617188 123.375 Z M 195.617188 124.652344 C 195.722656 124.652344 195.828125 124.675781 195.929688 124.714844 C 196.375 124.882812 196.59375 125.382812 196.421875 125.828125 L 179.878906 168.558594 C 179.75 168.898438 179.421875 169.109375 179.078125 169.109375 C 178.972656 169.109375 178.867188 169.089844 178.765625 169.050781 C 178.320312 168.878906 178.101562 168.378906 178.277344 167.9375 L 194.816406 125.207031 C 194.949219 124.863281 195.273438 124.652344 195.617188 124.652344 " fill-opacity="1" fill-rule="nonzero"/></g><g fill="#ffffff" fill-opacity="1"><g transform="translate(102.324017, 216.116295)"><g><path d="M 18.015625 0 L 18.015625 -27.5 L 28.65625 -27.5 L 28.65625 -33.59375 L 0.828125 -33.59375 L 0.828125 -27.5 L 11.515625 -27.5 L 11.515625 0 Z M 18.015625 0 "/></g></g></g><g fill="#ffffff" fill-opacity="1"><g transform="translate(130.236699, 216.116295)"><g><path d="M 8.78125 0 L 8.78125 -14.078125 L 23.359375 -14.078125 L 23.359375 0 L 29.859375 0 L 29.859375 -33.59375 L 23.359375 -33.59375 L 23.359375 -20.171875 L 8.78125 -20.171875 L 8.78125 -33.59375 L 2.234375 -33.59375 L 2.234375 0 Z M 8.78125 0 "/></g></g></g><g fill="#ffffff" fill-opacity="1"><g transform="translate(160.799878, 216.116295)"><g><path d="M 8.78125 0 L 8.78125 -33.59375 L 2.234375 -33.59375 L 2.234375 0 Z M 8.78125 0 "/></g></g></g><g fill="#ffffff" fill-opacity="1"><g transform="translate(170.2419, 216.116295)"><g><path d="M 33.671875 0 L 21.046875 -33.59375 L 13.125 -33.59375 L 0.578125 0 L 7.296875 0 L 10.3125 -8.53125 L 23.90625 -8.53125 L 26.921875 0 Z M 21.875 -14.125 L 12.296875 -14.125 L 17.0625 -27.21875 Z M 21.875 -14.125 "/></g></g></g><g fill="#ffffff" fill-opacity="1"><g transform="translate(202.917189, 216.116295)"><g><path d="M 18.9375 -13.25 L 25.8125 -13.25 L 25.8125 -7.171875 C 23.90625 -6.09375 21.75 -5.546875 19.46875 -5.546875 C 13.421875 -5.546875 8.484375 -9.03125 8.484375 -16.78125 L 8.484375 -16.859375 C 8.484375 -24.640625 13.421875 -28.078125 19.46875 -28.078125 C 23.078125 -28.078125 26.390625 -27.046875 28.875 -25.265625 L 31.390625 -30.9375 C 27.34375 -33.171875 23.609375 -34.171875 19.296875 -34.171875 C 8.859375 -34.171875 1.703125 -27.125 1.703125 -16.859375 L 1.703125 -16.78125 C 1.703125 -6.546875 8.859375 0.53125 19.296875 0.53125 C 23.53125 0.53125 28.703125 -0.65625 31.984375 -2.8125 L 31.984375 -18.46875 L 18.9375 -18.46875 Z M 18.9375 -13.25 "/></g></g></g><g fill="#ffffff" fill-opacity="1"><g transform="translate(235.675304, 216.116295)"><g><path d="M 19.296875 0.53125 C 29.703125 0.53125 36.859375 -7.125 36.859375 -16.8125 L 36.859375 -16.859375 C 36.859375 -26.640625 29.734375 -34.171875 19.296875 -34.171875 C 8.828125 -34.171875 1.703125 -26.640625 1.703125 -16.859375 L 1.703125 -16.8125 C 1.703125 -7.125 8.859375 0.53125 19.296875 0.53125 Z M 19.296875 -5.546875 C 13.171875 -5.546875 8.328125 -10.03125 8.328125 -16.8125 L 8.328125 -16.859375 C 8.328125 -23.6875 13.171875 -28.078125 19.296875 -28.078125 C 25.390625 -28.078125 30.234375 -23.6875 30.234375 -16.859375 L 30.234375 -16.8125 C 30.234375 -10.03125 25.390625 -5.546875 19.296875 -5.546875 Z M 19.296875 -5.546875 "/></g></g></g><g fill="#03fa6e" fill-opacity="1"><g transform="translate(103.366602, 245.299906)"><g><path d="M 14.34375 -3.734375 L 12.375 -15.59375 L 8.1875 -15.59375 L 6.1875 -3.765625 L 4.21875 -15.59375 L 0.359375 -15.59375 L 3.359375 0 L 8.296875 0 L 10.265625 -11.8125 L 12.25 0 L 17.171875 0 L 20.171875 -15.59375 L 16.328125 -15.59375 Z M 14.34375 -3.734375 "/></g></g></g><g fill="#03fa6e" fill-opacity="1"><g transform="translate(123.173695, 245.299906)"><g><path d="M 11.65625 0 L 11.65625 -3.34375 L 4.578125 -3.34375 L 4.578125 -6.390625 L 11 -6.390625 L 11 -9.5 L 4.578125 -9.5 L 4.578125 -12.25 L 11.625 -12.25 L 11.625 -15.59375 L 0.984375 -15.59375 L 0.984375 0 Z M 11.65625 0 "/></g></g></g><g fill="#03fa6e" fill-opacity="1"><g transform="translate(134.865498, 245.299906)"><g><path d="M 7.59375 0 C 10.890625 0 13.4375 -1.078125 13.4375 -4.46875 L 13.4375 -4.515625 C 13.4375 -6.5625 12.1875 -7.9375 10.015625 -8.265625 C 11.71875 -8.65625 12.75 -9.8125 12.75 -11.796875 L 12.75 -11.828125 C 12.75 -14.234375 11.5 -15.59375 7.765625 -15.59375 L 0.984375 -15.59375 L 0.984375 0 Z M 4.5625 -12.265625 L 7.328125 -12.265625 C 8.546875 -12.265625 9.171875 -11.890625 9.171875 -10.796875 L 9.171875 -10.71875 C 9.171875 -9.6875 8.46875 -9.25 7.25 -9.25 L 4.5625 -9.25 Z M 4.5625 -6.6875 L 7.765625 -6.6875 C 9.0625 -6.6875 9.796875 -6.109375 9.796875 -5.109375 L 9.796875 -5.046875 C 9.796875 -3.96875 9.109375 -3.34375 7.828125 -3.34375 L 4.5625 -3.34375 Z M 4.5625 -6.6875 "/></g></g></g><g fill="#03fa6e" fill-opacity="1"><g transform="translate(148.191905, 245.299906)"><g/></g></g><g fill="#03fa6e" fill-opacity="1"><g transform="translate(150.595361, 245.299906)"><g><path d="M 6.59375 0 C 12.140625 0 14.734375 -2.96875 14.734375 -7.890625 L 14.734375 -7.921875 C 14.734375 -12.6875 12.15625 -15.59375 6.59375 -15.59375 L 0.984375 -15.59375 L 0.984375 0 Z M 4.578125 -12.25 L 6.515625 -12.25 C 9.5625 -12.25 11.0625 -10.796875 11.0625 -7.921875 L 11.0625 -7.890625 C 11.0625 -4.859375 9.546875 -3.34375 6.515625 -3.34375 L 4.578125 -3.34375 Z M 4.578125 -12.25 "/></g></g></g><g fill="#03fa6e" fill-opacity="1"><g transform="translate(165.344817, 245.299906)"><g><path d="M 11.65625 0 L 11.65625 -3.34375 L 4.578125 -3.34375 L 4.578125 -6.390625 L 11 -6.390625 L 11 -9.5 L 4.578125 -9.5 L 4.578125 -12.25 L 11.625 -12.25 L 11.625 -15.59375 L 0.984375 -15.59375 L 0.984375 0 Z M 11.65625 0 "/></g></g></g><g fill="#03fa6e" fill-opacity="1"><g transform="translate(177.036621, 245.299906)"><g><path d="M 7.5 -3.46875 L 4.046875 -15.59375 L 0.1875 -15.59375 L 4.890625 0 L 10.09375 0 L 14.8125 -15.59375 L 10.9375 -15.59375 Z M 7.5 -3.46875 "/></g></g></g><g fill="#03fa6e" fill-opacity="1"><g transform="translate(191.305326, 245.299906)"><g><path d="M 11.65625 0 L 11.65625 -3.34375 L 4.578125 -3.34375 L 4.578125 -6.390625 L 11 -6.390625 L 11 -9.5 L 4.578125 -9.5 L 4.578125 -12.25 L 11.625 -12.25 L 11.625 -15.59375 L 0.984375 -15.59375 L 0.984375 0 Z M 11.65625 0 "/></g></g></g><g fill="#03fa6e" fill-opacity="1"><g transform="translate(202.99713, 245.299906)"><g><path d="M 11.484375 0 L 11.484375 -3.34375 L 4.578125 -3.34375 L 4.578125 -15.59375 L 0.984375 -15.59375 L 0.984375 0 Z M 11.484375 0 "/></g></g></g><g fill="#03fa6e" fill-opacity="1"><g transform="translate(214.131246, 245.299906)"><g><path d="M 8.984375 0.25 C 13.875 0.25 17.171875 -3.34375 17.171875 -7.8125 L 17.171875 -7.84375 C 17.171875 -12.34375 13.890625 -15.875 8.984375 -15.875 C 4.046875 -15.875 0.75 -12.34375 0.75 -7.84375 L 0.75 -7.8125 C 0.75 -3.34375 4.0625 0.25 8.984375 0.25 Z M 8.984375 -3.09375 C 6.359375 -3.09375 4.40625 -4.984375 4.40625 -7.8125 L 4.40625 -7.84375 C 4.40625 -10.671875 6.359375 -12.515625 8.984375 -12.515625 C 11.5625 -12.515625 13.515625 -10.671875 13.515625 -7.84375 L 13.515625 -7.8125 C 13.515625 -4.984375 11.5625 -3.09375 8.984375 -3.09375 Z M 8.984375 -3.09375 "/></g></g></g><g fill="#03fa6e" fill-opacity="1"><g transform="translate(231.322983, 245.299906)"><g><path d="M 4.578125 0 L 4.578125 -5.359375 L 8.4375 -5.359375 C 12.390625 -5.359375 14.015625 -7.828125 14.015625 -10.59375 L 14.015625 -10.625 C 14.015625 -13.140625 12.5625 -15.59375 8.4375 -15.59375 L 0.984375 -15.59375 L 0.984375 0 Z M 4.578125 -12.25 L 8.0625 -12.25 C 9.578125 -12.25 10.34375 -11.65625 10.34375 -10.375 L 10.34375 -10.34375 C 10.34375 -9.0625 9.5625 -8.484375 8.0625 -8.484375 L 4.578125 -8.484375 Z M 4.578125 -12.25 "/></g></g></g><g fill="#03fa6e" fill-opacity="1"><g transform="translate(245.207069, 245.299906)"><g><path d="M 11.65625 0 L 11.65625 -3.34375 L 4.578125 -3.34375 L 4.578125 -6.390625 L 11 -6.390625 L 11 -9.5 L 4.578125 -9.5 L 4.578125 -12.25 L 11.625 -12.25 L 11.625 -15.59375 L 0.984375 -15.59375 L 0.984375 0 Z M 11.65625 0 "/></g></g></g><g fill="#03fa6e" fill-opacity="1"><g transform="translate(256.898867, 245.299906)"><g><path d="M 10.921875 -6.390625 C 12.921875 -7.15625 13.796875 -8.859375 13.796875 -10.875 L 13.796875 -10.890625 C 13.796875 -13.40625 12.328125 -15.59375 8.21875 -15.59375 L 0.984375 -15.59375 L 0.984375 0 L 4.578125 0 L 4.578125 -5.9375 L 7.4375 -5.9375 L 10.75 0 L 14.546875 0 Z M 8.015625 -12.25 C 9.3125 -12.25 10.140625 -11.765625 10.140625 -10.46875 L 10.140625 -10.4375 C 10.140625 -9.09375 9.3125 -8.59375 8.015625 -8.59375 L 4.578125 -8.59375 L 4.578125 -12.25 Z M 8.015625 -12.25 "/></g></g></g></svg>